<svg width="212" height="164" viewBox="0 0 212 164" fill="none" xmlns="http://www.w3.org/2000/svg">
<g filter="url(#filter0_b_1804_20021)">
<path d="M192.009 73.2225C189.974 70.8299 187.52 68.8354 184.836 67.2178C178.949 63.6118 172.038 62.115 165.148 62.887C164.941 62.3621 164.628 61.82 164.353 61.3121C164.084 60.7956 163.698 59.6988 163.263 58.9732L162.08 57.2741C161.51 56.2924 160.825 55.4155 160.065 54.5462C160.029 54.4139 159.955 54.2475 159.833 54.0639L159.582 53.9126C157.58 51.5405 155.266 49.5077 152.634 47.8117L152.166 47.5297C150.975 46.8119 149.74 46.1777 148.44 45.6321L147.93 45.3245C146.554 44.7217 145.104 44.2537 143.615 43.9367C124.632 39.5784 108.652 53.4381 104.437 71.4294C102.548 80.7837 102.752 90.4239 105.014 99.6112C108.513 112.624 113.347 125.165 119.466 137.088L120.161 138.441L121.61 138.438C134.957 138.188 148.202 136.542 161.183 133.518C170.359 131.225 178.949 126.825 186.239 120.727C199.988 108.48 204.652 87.8014 192.009 73.2225Z" fill="url(#paint0_linear_1804_20021)"/>
</g>
<g opacity="0.5" filter="url(#filter1_f_1804_20021)">
<path d="M164.121 79.6434C162.837 78.1336 161.289 76.8749 159.595 75.8542C155.88 73.5787 151.519 72.6341 147.171 73.1213C147.04 72.79 146.843 72.448 146.669 72.1274C146.499 71.8015 146.255 71.1094 145.981 70.6515L145.235 69.5793C144.875 68.9598 144.443 68.4065 143.963 67.8579C143.94 67.7744 143.894 67.6694 143.817 67.5536L143.658 67.4581C142.395 65.9612 140.935 64.6784 139.274 63.6081L138.979 63.4302C138.227 62.9772 137.448 62.577 136.627 62.2328L136.305 62.0386C135.437 61.6583 134.522 61.3629 133.583 61.1629C121.603 58.4126 111.519 67.1586 108.859 78.5119C107.668 84.4148 107.796 90.4982 109.224 96.2958C111.432 104.507 114.483 112.421 118.343 119.945L118.782 120.799L119.696 120.797C128.119 120.639 136.477 119.6 144.668 117.693C150.459 116.245 155.879 113.469 160.48 109.62C169.156 101.892 172.099 88.8433 164.121 79.6434Z" fill="#6B8BB7"/>
</g>
<g filter="url(#filter2_b_1804_20021)">
<path d="M180.097 29.5526C179.603 29.0654 179.024 28.674 178.402 28.37C177.036 27.6905 175.486 27.4952 173.984 27.7991C173.928 27.6875 173.849 27.5742 173.778 27.4678C173.709 27.3593 173.603 27.1253 173.493 26.974L173.2 26.6229C173.055 26.4179 172.887 26.2381 172.703 26.0615C172.693 26.0331 172.673 25.9979 172.643 25.9598L172.585 25.9314C172.098 25.448 171.549 25.0455 170.937 24.7232L170.828 24.6702C170.552 24.5353 170.268 24.4197 169.971 24.3248L169.853 24.267C169.539 24.161 169.21 24.0862 168.876 24.0453C164.613 23.4546 161.363 26.8165 160.784 30.8594C160.549 32.9555 160.781 35.0739 161.456 37.0527C162.479 39.8496 163.786 42.5167 165.364 45.0228L165.543 45.3072L165.862 45.2784C168.795 44.964 171.679 44.3442 174.478 43.4264C176.454 42.7431 178.26 41.6076 179.747 40.1233C182.537 37.16 183.163 32.5167 180.097 29.5526Z" fill="url(#paint1_linear_1804_20021)"/>
</g>
<g filter="url(#filter3_b_1804_20021)">
<mask id="path-4-outside-1_1804_20021" maskUnits="userSpaceOnUse" x="-0.181537" y="-1.17421" width="168.62" height="163.121" fill="black">
<rect fill="white" x="-0.181537" y="-1.17421" width="168.62" height="163.121"/>
<path d="M113.389 7.40167C108.87 6.70826 104.268 6.85416 99.7679 7.63767C89.8432 9.29211 80.7888 14.2562 73.9102 21.7062C73.1835 21.3246 72.3241 21.025 71.5384 20.7273C70.7502 20.4153 69.2834 19.5735 68.1153 19.1877L65.1963 18.444C63.6348 17.9058 62.046 17.5933 60.3826 17.3601C60.2166 17.2491 59.9769 17.1362 59.6683 17.05L59.2475 17.1233C54.7857 16.4199 50.3004 16.3908 45.7843 17.0372L44.9999 17.1738C43.0032 17.5215 41.0369 18.0038 39.0834 18.6459L38.2277 18.7949C36.1363 19.4462 34.0901 20.318 32.1451 21.3931C7.04008 34.7561 2.53659 65.3656 14.9487 89.2739C21.7376 101.414 31.1082 111.867 42.3232 119.849C58.5342 130.871 75.7725 140.094 93.8424 147.405L95.8945 148.233L97.4916 146.843C111.999 133.786 125.069 119.286 136.539 103.517C144.5 92.1969 149.815 79.1131 152.083 65.3963C155.652 38.7053 141.186 11.3987 113.389 7.40167Z"/>
</mask>
<path d="M113.389 7.40167C108.87 6.70826 104.268 6.85416 99.7679 7.63767C89.8432 9.29211 80.7888 14.2562 73.9102 21.7062C73.1835 21.3246 72.3241 21.025 71.5384 20.7273C70.7502 20.4153 69.2834 19.5735 68.1153 19.1877L65.1963 18.444C63.6348 17.9058 62.046 17.5933 60.3826 17.3601C60.2166 17.2491 59.9769 17.1362 59.6683 17.05L59.2475 17.1233C54.7857 16.4199 50.3004 16.3908 45.7843 17.0372L44.9999 17.1738C43.0032 17.5215 41.0369 18.0038 39.0834 18.6459L38.2277 18.7949C36.1363 19.4462 34.0901 20.318 32.1451 21.3931C7.04008 34.7561 2.53659 65.3656 14.9487 89.2739C21.7376 101.414 31.1082 111.867 42.3232 119.849C58.5342 130.871 75.7725 140.094 93.8424 147.405L95.8945 148.233L97.4916 146.843C111.999 133.786 125.069 119.286 136.539 103.517C144.5 92.1969 149.815 79.1131 152.083 65.3963C155.652 38.7053 141.186 11.3987 113.389 7.40167Z" fill="#6B8BB7" fill-opacity="0.35"/>
<path d="M99.7679 7.63767L99.9311 8.62429L99.9382 8.62305L99.7679 7.63767ZM73.9102 21.7062L73.4447 22.5919C73.8451 22.8022 74.3371 22.7171 74.6443 22.3844L73.9102 21.7062ZM71.5384 20.7273L71.1696 21.6574C71.1742 21.6592 71.1787 21.661 71.1833 21.6627L71.5384 20.7273ZM68.1153 19.1877L68.4297 18.2379C68.4077 18.2306 68.3855 18.2241 68.3631 18.2184L68.1153 19.1877ZM65.1963 18.444L64.8697 19.3897C64.8956 19.3987 64.9219 19.4065 64.9485 19.4133L65.1963 18.444ZM60.3826 17.3601L59.8263 18.1918C59.9514 18.2754 60.0937 18.3297 60.2427 18.3506L60.3826 17.3601ZM59.6683 17.05L59.9381 16.0866C59.7949 16.0466 59.6445 16.0391 59.4979 16.0646L59.6683 17.05ZM59.2475 17.1233L59.0908 18.1113C59.1992 18.1284 59.3097 18.1275 59.4178 18.1086L59.2475 17.1233ZM45.7843 17.0372L45.6439 16.0471C45.6339 16.0486 45.6239 16.0501 45.614 16.0519L45.7843 17.0372ZM44.9999 17.1738L44.8296 16.1884L44.9999 17.1738ZM39.0834 18.6459L39.2538 19.6312C39.3015 19.6229 39.3485 19.6112 39.3945 19.5961L39.0834 18.6459ZM38.2277 18.7949L38.0574 17.8095C38.0148 17.8169 37.9728 17.827 37.9315 17.8399L38.2277 18.7949ZM32.1451 21.3931L32.6139 22.276C32.6185 22.2735 32.6232 22.271 32.6278 22.2684L32.1451 21.3931ZM14.9487 89.2739L14.0614 89.7358C14.0661 89.7449 14.071 89.754 14.0761 89.7631L14.9487 89.2739ZM42.3232 119.849L41.743 120.664C41.7488 120.668 41.7546 120.672 41.7605 120.676L42.3232 119.849ZM93.8424 147.405L93.4666 148.332L93.4674 148.333L93.8424 147.405ZM95.8945 148.233L95.5195 149.161C95.8681 149.302 96.2664 149.235 96.5503 148.988L95.8945 148.233ZM97.4916 146.843L98.1474 147.598C98.1515 147.594 98.1557 147.59 98.1598 147.586L97.4916 146.843ZM136.539 103.517L137.347 104.105C137.351 104.101 137.354 104.097 137.357 104.092L136.539 103.517ZM152.083 65.3963L153.069 65.5584C153.071 65.5482 153.072 65.538 153.074 65.5278L152.083 65.3963ZM113.541 6.41302C108.901 5.70103 104.189 5.85278 99.5976 6.65228L99.9382 8.62305C104.346 7.85555 108.838 7.7155 113.236 8.39031L113.541 6.41302ZM99.6047 6.65107C89.4555 8.34293 80.202 13.4186 73.1762 21.028L74.6443 22.3844C81.3757 15.0938 90.2308 10.2413 99.9311 8.62427L99.6047 6.65107ZM74.3757 20.8205C73.5795 20.4023 72.6376 20.0738 71.8934 19.7919L71.1833 21.6627C72.0105 21.9762 72.7876 22.2468 73.4447 22.5919L74.3757 20.8205ZM71.9072 19.7972C71.5602 19.6598 71.0575 19.4022 70.4078 19.0858C69.7969 18.7883 69.0842 18.454 68.4297 18.2379L67.8009 20.1375C68.3144 20.3071 68.9192 20.5867 69.5309 20.8846C70.1037 21.1635 70.7285 21.4828 71.1696 21.6574L71.9072 19.7972ZM68.3631 18.2184L65.4441 17.4747L64.9485 19.4133L67.8675 20.157L68.3631 18.2184ZM65.523 17.4983C63.8772 16.9311 62.2188 16.6074 60.5225 16.3696L60.2427 18.3506C61.8731 18.5793 63.3923 18.8806 64.8697 19.3897L65.523 17.4983ZM60.939 16.5284C60.6705 16.3488 60.3302 16.1961 59.9381 16.0866L59.3984 18.0134C59.6236 18.0763 59.7628 18.1493 59.8263 18.1918L60.939 16.5284ZM59.4979 16.0646L59.0772 16.1379L59.4178 18.1086L59.8386 18.0354L59.4979 16.0646ZM59.4043 16.1352C54.8432 15.4162 50.2577 15.3867 45.6439 16.0471L45.9248 18.0274C50.3431 17.3949 54.7283 17.4236 59.0908 18.1113L59.4043 16.1352ZM45.614 16.0519L44.8296 16.1884L45.1702 18.1592L45.9547 18.0226L45.614 16.0519ZM44.8296 16.1884C42.7877 16.544 40.7743 17.0377 38.7724 17.6957L39.3945 19.5961C41.2995 18.9699 43.2186 18.499 45.1702 18.1592L44.8296 16.1884ZM38.9131 17.6605L38.0574 17.8095L38.398 19.7802L39.2538 19.6312L38.9131 17.6605ZM37.9315 17.8399C35.7754 18.5114 33.6667 19.4099 31.6623 20.5178L32.6278 22.2684C34.5135 21.2261 36.4972 20.381 38.5239 19.7498L37.9315 17.8399ZM31.6762 20.5102C5.95212 34.2028 1.47302 65.488 14.0614 89.7358L15.8361 88.8121C3.60015 65.2432 8.12803 35.3095 32.6139 22.276L31.6762 20.5102ZM14.0761 89.7631C20.9367 102.031 30.4068 112.596 41.743 120.664L42.9034 119.033C31.8095 111.138 22.5386 100.796 15.8214 88.7848L14.0761 89.7631ZM41.7605 120.676C58.0297 131.738 75.3306 140.995 93.4666 148.332L94.2182 146.478C76.2144 139.194 59.0387 130.004 42.8858 119.021L41.7605 120.676ZM93.4674 148.333L95.5195 149.161L96.2695 147.306L94.2174 146.477L93.4674 148.333ZM96.5503 148.988L98.1474 147.598L96.8359 146.089L95.2388 147.479L96.5503 148.988ZM98.1598 147.586C112.719 134.483 125.836 119.93 137.347 104.105L135.731 102.93C124.302 118.641 111.279 133.09 96.8234 146.1L98.1598 147.586ZM137.357 104.092C145.406 92.6469 150.777 79.4216 153.069 65.5584L151.096 65.2342C148.853 78.8047 143.595 91.747 135.722 102.943L137.357 104.092ZM153.074 65.5278C156.692 38.4677 142.03 10.5095 113.532 6.41163L113.245 8.3917C140.342 12.288 154.611 38.9429 151.092 65.2648L153.074 65.5278Z" fill="url(#paint2_linear_1804_20021)" mask="url(#path-4-outside-1_1804_20021)"/>
</g>
<g filter="url(#filter4_bd_1804_20021)">
<path d="M132.253 49.4068C132.559 52.4558 130.47 55.2427 127.561 55.829C125.967 55.9512 124.348 55.5029 123.14 54.4601C121.933 53.4173 121.168 51.9217 121.021 50.2599L120.983 50.0381C120.121 45.0375 116.285 41.0545 111.42 40.1312C108.242 39.5852 106.107 36.5668 106.586 33.3888C107.137 30.1985 110.072 28.0603 113.169 28.5614C122.975 30.4685 130.592 38.4957 132.106 48.5555L132.253 49.4068Z" fill="url(#paint3_linear_1804_20021)"/>
<path d="M121.22 50.242L121.22 50.2338L121.218 50.2257L121.18 50.0039C120.304 44.9242 116.407 40.8741 111.457 39.9346L111.457 39.9346L111.454 39.934C108.386 39.4069 106.321 36.492 106.784 33.4206C107.318 30.3362 110.152 28.2775 113.133 28.7584C122.854 30.6501 130.407 38.6086 131.909 48.5855L131.909 48.5855L131.909 48.5897L132.055 49.434C132.346 52.3741 130.333 55.0598 127.534 55.6305C125.989 55.7459 124.43 55.3094 123.271 54.3086C122.104 53.3006 121.363 51.8534 121.22 50.242Z" stroke="url(#paint4_linear_1804_20021)" stroke-width="0.4"/>
</g>
<defs>
<filter id="filter0_b_1804_20021" x="90.1553" y="30.1289" width="122.245" height="121.312" filterUnits="userSpaceOnUse" color-interpolation-filters="sRGB">
<feFlood flood-opacity="0" result="BackgroundImageFix"/>
<feGaussianBlur in="BackgroundImageFix" stdDeviation="6.5"/>
<feComposite in2="SourceAlpha" operator="in" result="effect1_backgroundBlur_1804_20021"/>
<feBlend mode="normal" in="SourceGraphic" in2="effect1_backgroundBlur_1804_20021" result="shape"/>
</filter>
<filter id="filter1_f_1804_20021" x="90.0508" y="42.6528" width="96.7344" height="96.146" filterUnits="userSpaceOnUse" color-interpolation-filters="sRGB">
<feFlood flood-opacity="0" result="BackgroundImageFix"/>
<feBlend mode="normal" in="SourceGraphic" in2="BackgroundImageFix" result="shape"/>
<feGaussianBlur stdDeviation="9" result="effect1_foregroundBlur_1804_20021"/>
</filter>
<filter id="filter2_b_1804_20021" x="147.695" y="10.9775" width="47.438" height="47.3296" filterUnits="userSpaceOnUse" color-interpolation-filters="sRGB">
<feFlood flood-opacity="0" result="BackgroundImageFix"/>
<feGaussianBlur in="BackgroundImageFix" stdDeviation="6.5"/>
<feComposite in2="SourceAlpha" operator="in" result="effect1_backgroundBlur_1804_20021"/>
<feBlend mode="normal" in="SourceGraphic" in2="effect1_backgroundBlur_1804_20021" result="shape"/>
</filter>
<filter id="filter3_b_1804_20021" x="-16.7056" y="-18.0435" width="194.321" height="191.277" filterUnits="userSpaceOnUse" color-interpolation-filters="sRGB">
<feFlood flood-opacity="0" result="BackgroundImageFix"/>
<feGaussianBlur in="BackgroundImageFix" stdDeviation="12"/>
<feComposite in2="SourceAlpha" operator="in" result="effect1_backgroundBlur_1804_20021"/>
<feBlend mode="normal" in="SourceGraphic" in2="effect1_backgroundBlur_1804_20021" result="shape"/>
</filter>
<filter id="filter4_bd_1804_20021" x="91.519" y="13.4888" width="55.7637" height="57.3599" filterUnits="userSpaceOnUse" color-interpolation-filters="sRGB">
<feFlood flood-opacity="0" result="BackgroundImageFix"/>
<feGaussianBlur in="BackgroundImageFix" stdDeviation="7.5"/>
<feComposite in2="SourceAlpha" operator="in" result="effect1_backgroundBlur_1804_20021"/>
<feColorMatrix in="SourceAlpha" type="matrix" values="0 0 0 0 0 0 0 0 0 0 0 0 0 0 0 0 0 0 127 0" result="hardAlpha"/>
<feOffset dx="5" dy="5"/>
<feGaussianBlur stdDeviation="5"/>
<feColorMatrix type="matrix" values="0 0 0 0 0.419608 0 0 0 0 0.545098 0 0 0 0 0.717647 0 0 0 0.5 0"/>
<feBlend mode="normal" in2="effect1_backgroundBlur_1804_20021" result="effect2_dropShadow_1804_20021"/>
<feBlend mode="normal" in="SourceGraphic" in2="effect2_dropShadow_1804_20021" result="shape"/>
</filter>
<linearGradient id="paint0_linear_1804_20021" x1="101.598" y1="72.398" x2="186.851" y2="123.378" gradientUnits="userSpaceOnUse">
<stop stop-color="#50B3B1"/>
<stop offset="1" stop-color="#3681B9"/>
</linearGradient>
<linearGradient id="paint1_linear_1804_20021" x1="160.177" y1="31.1285" x2="179.93" y2="40.7005" gradientUnits="userSpaceOnUse">
<stop stop-color="#50B3B1"/>
<stop offset="1" stop-color="#3681B9"/>
</linearGradient>
<linearGradient id="paint2_linear_1804_20021" x1="26.4081" y1="36.6803" x2="131.309" y2="133.2" gradientUnits="userSpaceOnUse">
<stop stop-color="white" stop-opacity="0.25"/>
<stop offset="1" stop-color="white" stop-opacity="0"/>
</linearGradient>
<linearGradient id="paint3_linear_1804_20021" x1="127.472" y1="31.1958" x2="102.453" y2="36.1614" gradientUnits="userSpaceOnUse">
<stop stop-color="white"/>
<stop offset="1" stop-color="white" stop-opacity="0.2"/>
</linearGradient>
<linearGradient id="paint4_linear_1804_20021" x1="109.793" y1="32.3392" x2="131.966" y2="47.2398" gradientUnits="userSpaceOnUse">
<stop stop-color="white" stop-opacity="0.25"/>
<stop offset="1" stop-color="white" stop-opacity="0"/>
</linearGradient>
</defs>
</svg>
