<svg width="20" height="20" viewBox="0 0 20 20" fill="none" xmlns="http://www.w3.org/2000/svg">
<path d="M19.3346 9.66703V10.3336C19.3346 10.7018 19.0362 11.0003 18.668 11.0003H11.0013V18.667C11.0013 19.0351 10.7028 19.3336 10.3346 19.3336H9.668C9.2998 19.3336 9.0013 19.0351 9.0013 18.667V11.0003H1.33464C0.966449 11.0003 0.667969 10.7018 0.667969 10.3336V9.66703C0.667969 9.29883 0.966449 9.00033 1.33464 9.00033H9.0013V1.33365C9.0013 0.965463 9.2998 0.666992 9.668 0.666992H10.3346C10.7028 0.666992 11.0013 0.965463 11.0013 1.33365V9.00033H18.668C19.0362 9.00033 19.3346 9.29883 19.3346 9.66703Z" fill="black"/>
</svg>
