<svg width="150" height="42" viewBox="0 0 150 42" fill="none" xmlns="http://www.w3.org/2000/svg">
<g clip-path="url(#clip0_41_5466)">
<path d="M143.384 0.508301H5.82979C2.79104 0.508301 0.327637 2.78373 0.327637 5.59062V36.0845C0.327637 38.8914 2.79104 41.1668 5.82979 41.1668H143.384C146.423 41.1668 148.886 38.8914 148.886 36.0845V5.59062C148.886 2.78373 146.423 0.508301 143.384 0.508301Z" fill="black"/>
<path d="M143.384 1.32147C144.61 1.32148 145.785 1.77127 146.652 2.57189C147.519 3.37251 148.006 4.45838 148.006 5.59063V36.0845C148.006 37.2167 147.519 38.3026 146.652 39.1032C145.785 39.9038 144.61 40.3536 143.384 40.3536H5.8298C5.22285 40.3536 4.62185 40.2432 4.0611 40.0287C3.50036 39.8141 2.99085 39.4997 2.56168 39.1032C2.1325 38.7068 1.79206 38.2362 1.55979 37.7182C1.32753 37.2003 1.20798 36.6451 1.20798 36.0845V5.59063C1.20798 5.02999 1.32753 4.47485 1.55979 3.95689C1.79206 3.43893 2.1325 2.96831 2.56168 2.57188C2.99085 2.17545 3.50036 1.86098 4.0611 1.64644C4.62185 1.43189 5.22285 1.32147 5.8298 1.32147H143.384ZM143.384 0.508301H5.8298C5.10724 0.508301 4.39176 0.639762 3.72421 0.895173C3.05665 1.15058 2.4501 1.52494 1.93918 1.99688C1.42825 2.46882 1.02297 3.02909 0.74646 3.64571C0.469951 4.26232 0.327635 4.92321 0.327637 5.59063V36.0845C0.327635 36.7519 0.469951 37.4128 0.74646 38.0294C1.02297 38.646 1.42825 39.2063 1.93918 39.6782C2.4501 40.1502 3.05665 40.5245 3.72421 40.7799C4.39176 41.0354 5.10724 41.1668 5.8298 41.1668H143.384C144.843 41.1668 146.243 40.6314 147.274 39.6782C148.306 38.7251 148.886 37.4324 148.886 36.0845V5.59063C148.886 4.24272 148.306 2.95001 147.274 1.99689C146.243 1.04377 144.843 0.508307 143.384 0.508301Z" fill="#A6A6A6"/>
<path d="M55.0617 11.1724C55.079 11.5172 55.0203 11.8617 54.8891 12.1849C54.7579 12.5081 54.5569 12.8033 54.2984 13.0526C54.0098 13.3296 53.6612 13.5472 53.2754 13.6914C52.8896 13.8356 52.4752 13.903 52.0593 13.8893C51.4283 13.8847 50.8127 13.7083 50.2898 13.382C49.7669 13.0557 49.3598 12.5941 49.1197 12.0551C48.8795 11.516 48.8169 10.9235 48.9397 10.3518C49.0625 9.78 49.3653 9.25443 49.81 8.84092C50.1024 8.56526 50.4528 8.34795 50.8397 8.20242C51.2266 8.05689 51.6417 7.98624 52.0593 7.99484C52.4896 7.99349 52.9156 8.07343 53.3112 8.22977C53.6795 8.36697 54.0073 8.58282 54.2679 8.85963L53.7285 9.35789C53.5253 9.1347 53.2688 8.95821 52.9791 8.84237C52.6894 8.72652 52.3745 8.6745 52.0593 8.69041C51.7414 8.68897 51.4265 8.74685 51.1334 8.86056C50.8403 8.97428 50.575 9.1415 50.3536 9.35219C50.1321 9.56289 49.959 9.81271 49.8446 10.0867C49.7303 10.3607 49.677 10.6532 49.6879 10.9467C49.6813 11.3849 49.8152 11.8151 50.073 12.1831C50.3307 12.551 50.7007 12.8402 51.1361 13.0142C51.5716 13.1882 52.0531 13.2391 52.5199 13.1606C52.9867 13.0821 53.4179 12.8776 53.759 12.5731C54.0722 12.2596 54.2528 11.8525 54.2679 11.4261H52.0593V10.7492H55.021C55.0482 10.8889 55.0618 11.0305 55.0617 11.1724Z" fill="white" stroke="white" stroke-width="0.490491" stroke-miterlimit="10"/>
<path d="M59.7228 8.82215H56.9749V10.6084H59.4786V11.2852H56.9749V13.0714H59.7228V13.7671H56.1606V8.12646H59.7228V8.82215Z" fill="white" stroke="white" stroke-width="0.490491" stroke-miterlimit="10"/>
<path d="M63.0614 13.7671H62.2777V8.82215H60.5679V8.12646H64.812V8.82215H63.0614V13.7671Z" fill="white" stroke="white" stroke-width="0.490491" stroke-miterlimit="10"/>
<path d="M67.8037 13.7671V8.12646H68.5874V13.7671H67.8037Z" fill="white" stroke="white" stroke-width="0.490491" stroke-miterlimit="10"/>
<path d="M72.0682 13.7671H71.2846V8.82215H69.5747V8.12646H73.7679V8.82215H72.0682V13.7671Z" fill="white" stroke="white" stroke-width="0.490491" stroke-miterlimit="10"/>
<path d="M81.7166 13.0338C81.1216 13.5804 80.3166 13.8872 79.4775 13.8872C78.6384 13.8872 77.8334 13.5804 77.2384 13.0338C76.6601 12.4684 76.3379 11.72 76.3379 10.9421C76.3379 10.1642 76.6601 9.41582 77.2384 8.85037C77.5317 8.5775 77.8805 8.36093 78.2648 8.21314C78.6491 8.06535 79.0612 7.98926 79.4775 7.98926C79.8938 7.98926 80.3059 8.06535 80.6902 8.21314C81.0745 8.36093 81.4233 8.5775 81.7166 8.85037C82.2972 9.41474 82.621 10.1635 82.621 10.9421C82.621 11.7207 82.2972 12.4695 81.7166 13.0338ZM77.8185 12.5638C78.2592 12.9691 78.8557 13.1966 79.4775 13.1966C80.0993 13.1966 80.6959 12.9691 81.1365 12.5638C81.5713 12.121 81.8122 11.5446 81.8122 10.9468C81.8122 10.349 81.5713 9.77259 81.1365 9.32982C80.6959 8.92451 80.0993 8.69696 79.4775 8.69696C78.8557 8.69696 78.2592 8.92451 77.8185 9.32982C77.3837 9.77259 77.1428 10.349 77.1428 10.9468C77.1428 11.5446 77.3837 12.121 77.8185 12.5638Z" fill="white" stroke="white" stroke-width="0.490491" stroke-miterlimit="10"/>
<path d="M83.7217 13.7671V8.12646H84.6784L87.6503 12.5168V11.4263V8.12646H88.4238V13.7671H87.6095L84.5054 9.16997V10.2605V13.7671H83.7217Z" fill="white" stroke="white" stroke-width="0.490491" stroke-miterlimit="10"/>
<path d="M76.1494 21.9931C75.2948 21.9969 74.4605 22.2343 73.7519 22.6756C73.0432 23.1169 72.492 23.7422 72.1677 24.4726C71.8434 25.203 71.7607 26.0057 71.9299 26.7795C72.099 27.5533 72.5126 28.2635 73.1183 28.8204C73.7241 29.3773 74.4948 29.756 75.3333 29.9086C76.1719 30.0613 77.0405 29.981 77.8297 29.6781C78.6189 29.3751 79.2933 28.863 79.7677 28.2064C80.2421 27.5498 80.4953 26.778 80.4953 25.9886C80.5036 25.4602 80.3967 24.9357 80.181 24.4462C79.9653 23.9568 79.6451 23.5124 79.2396 23.1396C78.8341 22.7668 78.3516 22.4732 77.8207 22.2762C77.2898 22.0793 76.7214 21.983 76.1494 21.9931ZM76.1494 28.4141C75.6238 28.4481 75.0993 28.3352 74.6441 28.0901C74.1889 27.8451 73.824 27.4792 73.5969 27.0401C73.3698 26.6009 73.2909 26.1088 73.3706 25.6278C73.4503 25.1467 73.6848 24.6989 74.0436 24.3425C74.4025 23.9862 74.8691 23.7378 75.3828 23.6297C75.8965 23.5215 76.4336 23.5587 76.9241 23.7362C77.4147 23.9137 77.8361 24.2235 78.1336 24.6252C78.431 25.0269 78.5908 25.5019 78.5921 25.9886C78.6085 26.297 78.5578 26.6053 78.4432 26.8953C78.3286 27.1853 78.1522 27.4512 77.9246 27.6772C77.6969 27.9033 77.4225 28.0849 77.1177 28.2115C76.8128 28.338 76.4836 28.4069 76.1494 28.4141ZM66.674 21.9931C65.8189 21.995 64.9836 22.2309 64.2736 22.6711C63.5636 23.1112 63.0108 23.7359 62.685 24.4661C62.3592 25.1964 62.2749 25.9994 62.443 26.7738C62.611 27.5483 63.0238 28.2593 63.6291 28.8171C64.2345 29.375 65.0052 29.7545 65.844 29.908C66.6828 30.0614 67.552 29.9817 68.3418 29.679C69.1316 29.3763 69.8065 28.8642 70.2814 28.2074C70.7562 27.5506 71.0097 26.7784 71.0097 25.9886C71.018 25.4602 70.9111 24.9357 70.6954 24.4462C70.4796 23.9568 70.1595 23.5124 69.754 23.1396C69.3485 22.7668 68.866 22.4732 68.3351 22.2762C67.8042 22.0793 67.2358 21.983 66.6638 21.9931H66.674ZM66.674 28.4141C66.1481 28.45 65.6228 28.3388 65.1663 28.095C64.7098 27.8512 64.3434 27.4861 64.1146 27.0473C63.8859 26.6084 63.8056 26.1161 63.884 25.6345C63.9624 25.1529 64.196 24.7042 64.5543 24.3469C64.9126 23.9896 65.3791 23.7402 65.893 23.6312C66.4069 23.5222 66.9445 23.5587 67.4356 23.7358C67.9268 23.913 68.3489 24.2226 68.6469 24.6244C68.9449 25.0262 69.105 25.5016 69.1064 25.9886C69.1228 26.297 69.0722 26.6053 68.9576 26.8953C68.8429 27.1853 68.6666 27.4512 68.4389 27.6772C68.2113 27.9033 67.9369 28.0849 67.6321 28.2115C67.3272 28.338 66.998 28.4069 66.6638 28.4141H66.674ZM55.3869 23.2247V24.9169H59.7837C59.7147 25.7139 59.3561 26.466 58.7659 27.0509C58.326 27.4648 57.7972 27.789 57.2135 28.0027C56.6298 28.2165 56.0041 28.315 55.3768 28.2919C54.0811 28.2919 52.8385 27.8165 51.9223 26.9702C51.0061 26.1239 50.4914 24.9762 50.4914 23.7794C50.4914 22.5826 51.0061 21.4348 51.9223 20.5885C52.8385 19.7422 54.0811 19.2668 55.3768 19.2668C56.6162 19.2482 57.813 19.6843 58.7048 20.4796L59.9974 19.2856C59.3954 18.7225 58.6771 18.2768 57.8851 17.9748C57.0932 17.6728 56.2437 17.5208 55.3869 17.5276C54.4821 17.4951 53.5795 17.6317 52.7332 17.9291C51.8869 18.2265 51.1143 18.6786 50.4618 19.2584C49.8092 19.8382 49.29 20.5337 48.9354 21.3033C48.5807 22.0729 48.3979 22.9007 48.3979 23.7371C48.3979 24.5734 48.5807 25.4012 48.9354 26.1708C49.29 26.9404 49.8092 27.6359 50.4618 28.2157C51.1143 28.7955 51.8869 29.2477 52.7332 29.5451C53.5795 29.8425 54.4821 29.979 55.3869 29.9465C56.2581 29.9828 57.1276 29.8464 57.9369 29.5464C58.7462 29.2464 59.4766 28.7898 60.0788 28.2073C61.1451 27.1251 61.7144 25.7026 61.6666 24.24C61.6699 23.8837 61.6358 23.5279 61.5649 23.1777H55.387L55.3869 23.2247ZM101.502 24.5409C101.237 23.8195 100.74 23.1897 100.079 22.7347C99.4171 22.2798 98.6216 22.0212 97.7974 21.9931C97.2406 21.9921 96.6896 22.0966 96.1783 22.3001C95.6671 22.5036 95.2064 22.8018 94.8248 23.1763C94.4433 23.5508 94.1489 23.9936 93.96 24.4773C93.771 24.961 93.6915 25.4754 93.7263 25.9886C93.7139 26.514 93.8163 27.0364 94.0274 27.5245C94.2385 28.0125 94.5539 28.4563 94.9548 28.8292C95.3557 29.2022 95.8339 29.4966 96.3607 29.695C96.8876 29.8935 97.4524 29.9918 98.0213 29.9841C98.7332 29.9876 99.435 29.828 100.064 29.5196C100.693 29.2111 101.229 28.7635 101.624 28.2167L100.148 27.2766C99.9282 27.6157 99.6163 27.8963 99.2435 28.0907C98.8706 28.2852 98.4495 28.3869 98.0213 28.3859C97.5804 28.4014 97.1447 28.2941 96.7708 28.0778C96.3969 27.8615 96.102 27.5463 95.9247 27.1731L101.716 24.9639L101.502 24.5409ZM95.599 25.8758C95.5784 25.585 95.6207 25.2933 95.7237 25.0179C95.8266 24.7424 95.988 24.4887 96.1984 24.2716C96.4088 24.0545 96.664 23.8783 96.9491 23.7534C97.2341 23.6285 97.5433 23.5575 97.8584 23.5443C98.1867 23.5243 98.5141 23.5939 98.8 23.7443C99.0859 23.8947 99.3176 24.1194 99.4665 24.3904L95.599 25.8758ZM90.8969 29.749H92.8001V17.9977H90.8969V29.749ZM87.7825 22.8862H87.7113C87.4245 22.59 87.0731 22.3531 86.6802 22.1911C86.2873 22.0291 85.8618 21.9456 85.4315 21.9461C84.3193 21.996 83.2705 22.4392 82.5024 23.1839C81.7343 23.9286 81.3059 24.9177 81.3059 25.9463C81.3059 26.9749 81.7343 27.964 82.5024 28.7087C83.2705 29.4534 84.3193 29.8966 85.4315 29.9465C85.8628 29.9532 86.2905 29.8725 86.6843 29.71C87.0782 29.5476 87.4288 29.3074 87.7113 29.0064H87.7723V29.655C87.7723 31.1874 86.8868 32.0053 85.4619 32.0053C84.9874 31.995 84.5268 31.8546 84.139 31.6018C83.7511 31.349 83.4535 30.9953 83.2839 30.5858L81.625 31.225C81.9372 31.9267 82.4693 32.5262 83.153 32.9466C83.8366 33.367 84.6406 33.5892 85.4619 33.5847C87.6909 33.5847 89.533 32.372 89.533 29.42V22.2282H87.7825L87.7825 22.8862ZM85.6045 28.4141C84.948 28.3607 84.3369 28.082 83.8919 27.633C83.4468 27.1841 83.1999 26.5974 83.1999 25.9886C83.1999 25.3798 83.4468 24.7932 83.8919 24.3442C84.3369 23.8953 84.948 23.6166 85.6045 23.5631C85.93 23.5786 86.2489 23.654 86.5423 23.785C86.8358 23.916 87.0979 24.1 87.3132 24.326C87.5285 24.5521 87.6926 24.8156 87.796 25.1011C87.8993 25.3867 87.9397 25.6884 87.9148 25.9886C87.9426 26.2901 87.9039 26.5937 87.801 26.8809C87.6981 27.1682 87.5333 27.4332 87.3163 27.6599C87.0994 27.8867 86.835 28.0704 86.539 28.2C86.243 28.3296 85.9216 28.4025 85.5943 28.4141H85.6045ZM110.418 17.9977H105.868V29.749H107.772V25.2929H110.428C110.97 25.3283 111.515 25.26 112.028 25.0924C112.54 24.9248 113.01 24.6614 113.408 24.3187C113.805 23.976 114.122 23.5613 114.339 23.1005C114.555 22.6397 114.666 22.1426 114.666 21.6402C114.665 21.1379 114.552 20.6411 114.334 20.1808C114.117 19.7205 113.799 19.3065 113.4 18.9648C113.002 18.623 112.531 18.3608 112.018 18.1944C111.505 18.028 110.96 17.9611 110.418 17.9977ZM110.418 23.6383H107.761V19.6335H110.458C111.036 19.6335 111.59 19.8454 111.999 20.2227C112.407 20.6 112.636 21.1117 112.636 21.6453C112.636 22.1789 112.407 22.6906 111.999 23.0679C111.59 23.4452 111.036 23.6571 110.458 23.6571L110.418 23.6383ZM122.153 21.9461C121.46 21.9079 120.77 22.0575 120.168 22.3765C119.566 22.6955 119.077 23.17 118.763 23.7418L120.453 24.3904C120.619 24.1068 120.872 23.8741 121.179 23.7205C121.486 23.567 121.835 23.4992 122.183 23.5255C122.425 23.4995 122.67 23.5181 122.903 23.5804C123.137 23.6426 123.355 23.7472 123.544 23.8881C123.734 24.029 123.891 24.2034 124.007 24.401C124.123 24.5986 124.195 24.8155 124.219 25.0391V25.1614C123.607 24.8625 122.926 24.7075 122.234 24.7102C120.412 24.7102 118.57 25.6502 118.57 27.3519C118.588 27.7147 118.685 28.0705 118.854 28.3982C119.023 28.726 119.262 29.0191 119.556 29.2601C119.851 29.5011 120.194 29.6852 120.566 29.8015C120.939 29.9178 121.333 29.9639 121.725 29.9372C122.204 29.969 122.684 29.881 123.114 29.6825C123.544 29.484 123.908 29.1823 124.168 28.809H124.229V29.7491H126.061V25.2272C126.061 23.1684 124.371 21.9744 122.203 21.9744L122.153 21.9461ZM121.918 28.3859C121.579 28.4297 121.235 28.3504 120.958 28.1645C120.681 27.9787 120.492 27.7008 120.433 27.3894C120.433 26.4493 121.511 26.139 122.468 26.139C123.073 26.1252 123.67 26.2616 124.198 26.5339C124.135 27.0429 123.874 27.5134 123.464 27.8589C123.055 28.2045 122.524 28.4016 121.969 28.4141L121.918 28.3859ZM132.737 22.2282L130.559 27.3236H130.498L128.239 22.2282H126.203L129.593 29.3542L127.659 33.3121H129.643L134.854 22.2282H132.748H132.737ZM115.629 29.749H117.532V17.9977H115.629V29.749Z" fill="white"/>
<path d="M17.4245 8.63415C17.0927 9.00183 16.9253 9.47253 16.9563 9.9503V30.7455C16.9253 31.2233 17.0927 31.6939 17.4245 32.0616L17.4957 32.1274L30.1059 20.4888V20.2068L17.4957 8.56836L17.4245 8.63415Z" fill="url(#paint0_linear_41_5466)"/>
<path d="M34.2783 24.3715L30.1055 20.4889V20.2069L34.2783 16.3242L34.37 16.3713L39.3673 18.9942C40.7921 19.7369 40.7921 20.9591 39.3673 21.7112L34.3904 24.3246L34.2783 24.3715Z" fill="url(#paint1_linear_41_5466)"/>
<path d="M34.4007 24.3149L30.1057 20.3477L17.4243 32.0614C17.7147 32.2972 18.0852 32.4319 18.4718 32.4423C18.8583 32.4526 19.2366 32.3379 19.5413 32.1179L34.4109 24.315" fill="url(#paint2_linear_41_5466)"/>
<path d="M34.4011 16.3809L19.5315 8.57803C19.2269 8.35805 18.8486 8.24328 18.462 8.25356C18.0755 8.26385 17.705 8.39853 17.4146 8.63434L30.1061 20.3481L34.4011 16.3809Z" fill="url(#paint3_linear_41_5466)"/>
<path opacity="0.2" d="M34.2786 24.2305L19.5311 31.9863C19.2373 32.1893 18.8802 32.2989 18.5133 32.2989C18.1465 32.2989 17.7894 32.1893 17.4956 31.9863L17.4243 32.0521L17.4956 32.1179C17.7887 32.3222 18.146 32.4328 18.5133 32.4328C18.8806 32.4328 19.2379 32.3222 19.5311 32.1179L34.4007 24.3149L34.2786 24.2305Z" fill="black"/>
<path opacity="0.12" d="M17.4251 31.9299C17.0929 31.5622 16.9253 31.0915 16.9563 30.6138V30.7548C16.9253 31.2325 17.0929 31.7032 17.4251 32.0709L17.4965 32.0052L17.4251 31.9299Z" fill="black"/>
<path opacity="0.12" d="M39.3681 21.5702L34.2793 24.2307L34.371 24.3154L39.3682 21.7019C39.6518 21.5789 39.8952 21.3889 40.0739 21.1512C40.2526 20.9136 40.3602 20.6365 40.386 20.3481C40.3288 20.6102 40.2073 20.8566 40.0308 21.0684C39.8544 21.2803 39.6276 21.4519 39.3681 21.5702Z" fill="black"/>
<path opacity="0.25" d="M19.5309 8.70924L39.3672 19.1256C39.6267 19.2439 39.8534 19.4156 40.0298 19.6275C40.2063 19.8394 40.3278 20.0858 40.385 20.3478C40.3593 20.0594 40.2516 19.7824 40.0729 19.5447C39.8942 19.307 39.6508 19.1171 39.3672 18.994L19.5309 8.57763C18.1061 7.83494 16.9458 8.45532 16.9458 9.95959V10.1006C16.9763 8.587 18.1162 7.96655 19.5309 8.70924Z" fill="white"/>
</g>
<defs>
<linearGradient id="paint0_linear_41_5466" x1="28.9863" y1="9.7341" x2="13.2609" y2="26.7586" gradientUnits="userSpaceOnUse">
<stop stop-color="#00A0FF"/>
<stop offset="0.01" stop-color="#00A1FF"/>
<stop offset="0.26" stop-color="#00BEFF"/>
<stop offset="0.51" stop-color="#00D2FF"/>
<stop offset="0.76" stop-color="#00DFFF"/>
<stop offset="1" stop-color="#00E3FF"/>
</linearGradient>
<linearGradient id="paint1_linear_41_5466" x1="41.2297" y1="20.3479" x2="16.6098" y2="20.3479" gradientUnits="userSpaceOnUse">
<stop stop-color="#FFE000"/>
<stop offset="0.41" stop-color="#FFBD00"/>
<stop offset="0.78" stop-color="#FFA500"/>
<stop offset="1" stop-color="#FF9C00"/>
</linearGradient>
<linearGradient id="paint2_linear_41_5466" x1="32.07" y1="22.5099" x2="10.7397" y2="45.5922" gradientUnits="userSpaceOnUse">
<stop stop-color="#FF3A44"/>
<stop offset="1" stop-color="#C31162"/>
</linearGradient>
<linearGradient id="paint3_linear_41_5466" x1="14.2289" y1="1.71524" x2="23.7504" y2="12.0233" gradientUnits="userSpaceOnUse">
<stop stop-color="#32A071"/>
<stop offset="0.07" stop-color="#2DA771"/>
<stop offset="0.48" stop-color="#15CF74"/>
<stop offset="0.8" stop-color="#06E775"/>
<stop offset="1" stop-color="#00F076"/>
</linearGradient>
<clipPath id="clip0_41_5466">
<rect width="149.4" height="41.4" fill="white"/>
</clipPath>
</defs>
</svg>
