<svg width="21" height="20" viewBox="0 0 21 20" fill="none" xmlns="http://www.w3.org/2000/svg">
    <path d="M8.00246 2.25722C7.69873 1.4979 6.96332 1 6.14551 1H3.39474C2.3483 1 1.5 1.8481 1.5 2.89453C1.5 11.7892 8.71078 19 17.6055 19C18.6519 19 19.5 18.1516 19.5 17.1052L19.5005 14.354C19.5005 13.5361 19.0027 12.8009 18.2434 12.4971L15.6069 11.4429C14.9249 11.1701 14.1483 11.2929 13.5839 11.7632L12.9035 12.3307C12.1089 12.9929 10.9396 12.9402 10.2082 12.2088L8.29222 10.2911C7.56079 9.55962 7.50673 8.39134 8.16895 7.59668L8.73633 6.9163C9.20661 6.35195 9.33049 5.57516 9.05766 4.89309L8.00246 2.25722Z" stroke="url(#paint0_linear_2501_12861)" stroke-width="2" stroke-linecap="round" stroke-linejoin="round" />
    <defs>
        <linearGradient id="paint0_linear_2501_12861" x1="1.5" y1="10.0383" x2="19.5005" y2="10.0383" gradientUnits="userSpaceOnUse">
            <stop stop-color="#50B3B1" />
            <stop offset="1" stop-color="#3681B9" />
        </linearGradient>
    </defs>
</svg>