<svg width="158" height="33" viewBox="0 0 158 33" fill="none" xmlns="http://www.w3.org/2000/svg">
<path d="M19.8404 14.9981C23.982 14.9981 27.3394 11.6407 27.3394 7.49905C27.3394 3.35744 23.982 0 19.8404 0C15.6987 0 12.3413 3.35744 12.3413 7.49905C12.3413 11.6407 15.6987 14.9981 19.8404 14.9981Z" fill="#13396C"/>
<path d="M20.6311 32.7564C28.7583 32.1735 48.2776 6.87063 45.1367 3.72966C41.0262 -0.380774 27.662 17.3204 20.4076 18.0573C14.5485 18.6613 4.49741 5.53572 1.00611 7.11526C-4.5087 9.60991 14.1468 33.2215 20.6311 32.7564Z" fill="#13396C"/>
<path d="M93.7884 9V27.7763H87.8387V20.9417H80.9497V27.7763H75V9H80.9497V15.9977H87.8266V9H93.7884Z" fill="#13396C"/>
<path d="M96.1616 17.8672C96.1616 11.9144 101.066 8.05469 106.533 8.05469C110.157 8.05469 112.927 9.8245 114.736 12.4792L110.112 15.3725C109.39 14.249 107.862 13.5604 106.575 13.5604C103.839 13.5604 102.081 15.5356 102.081 17.8672C102.081 20.1987 103.839 22.2857 106.575 22.2857C107.862 22.2857 109.39 21.6031 110.112 20.4736L114.736 23.3669C112.923 26.0216 110.154 27.7914 106.533 27.7914C101.066 27.7854 96.1616 23.8169 96.1616 17.8672Z" fill="#13396C"/>
<path d="M136.6 8.53791V27.3142H130.647V24.9434C129.36 26.7102 127.071 27.7975 124.697 27.7975C119.43 27.7975 115.73 23.8169 115.73 17.9457C115.73 12.0745 119.43 8.05469 124.791 8.05469C127.083 8.05469 129.373 9.0604 130.659 10.791V8.53791H136.6ZM130.448 17.9457C130.454 17.3718 130.346 16.8022 130.131 16.2702C129.915 15.7382 129.596 15.2543 129.192 14.8466C128.788 14.4389 128.307 14.1156 127.777 13.8953C127.247 13.675 126.679 13.5622 126.105 13.5635C123.571 13.5635 121.804 15.5356 121.804 17.9457C121.798 18.5176 121.905 19.085 122.121 19.6146C122.337 20.1443 122.656 20.6255 123.061 21.03C123.465 21.4345 123.946 21.7543 124.475 21.9704C125.005 22.1866 125.572 22.2948 126.144 22.2887C127.287 22.2721 128.378 21.808 129.183 20.996C129.987 20.184 130.442 19.0889 130.448 17.9457Z" fill="#13396C"/>
<path d="M158 8.53809V27.3144H152.051V20.4798H145.174V27.3144H139.23V8.53809H145.18V15.5358H152.057V8.53809H158Z" fill="#13396C"/>
<path d="M72.8745 27.1815H66.9248V25.6412C66.4808 26.3872 64.8107 27.3023 63.1919 27.3023C57.6227 27.3023 53.9834 23.0741 53.9834 17.8643V8.53809H59.912V17.8643C59.9196 18.7682 60.2755 19.6343 60.9054 20.2825C61.5354 20.9307 62.391 21.3111 63.2943 21.3446C64.1976 21.378 65.079 21.062 65.7552 20.4621C66.4313 19.8623 66.8503 19.0249 66.9248 18.1241C66.9248 18.0395 66.9248 17.9519 66.9248 17.8643V8.53809H72.8564L72.8745 27.1815Z" fill="#13396C"/>
</svg>
