<svg width="44" height="44" viewBox="0 0 44 44" fill="none" xmlns="http://www.w3.org/2000/svg">
<rect width="44" height="44" rx="10" fill="white"/>
<path d="M23.8368 25.952L26.7061 28.7221C27.2939 29.2883 27.2939 30.2079 26.7061 30.7747C26.1189 31.3415 25.1672 31.3415 24.5806 30.7747L21.7595 28.0527L18.9408 30.7747C18.6469 31.0578 18.2618 31.1995 17.8767 31.1995C17.4922 31.1995 17.1077 31.0578 16.8138 30.7747C16.2266 30.2079 16.2266 29.2889 16.8132 28.7221L19.6828 25.952C18.638 25.7223 17.6304 25.3227 16.7023 24.7606C15.9999 24.3331 15.7889 23.4376 16.2315 22.759C16.6728 22.0795 17.6009 21.875 18.3045 22.3024C20.4057 23.5784 23.1126 23.5787 25.2151 22.3024C25.9187 21.875 26.8464 22.0795 27.2887 22.759C27.7312 23.437 27.5196 24.3331 26.8173 24.7606C25.8892 25.3233 24.8816 25.7223 23.8368 25.952Z" fill="#04386C"/>
<path fill-rule="evenodd" clip-rule="evenodd" d="M16.4541 16.9549C16.4541 19.6864 18.7562 21.9083 21.5868 21.9083C24.4181 21.9083 26.7196 19.6864 26.7196 16.9549C26.7196 14.2225 24.4181 12 21.5868 12C18.7562 12 16.4541 14.2225 16.4541 16.9549ZM23.7121 16.955C23.7121 15.8237 22.7588 14.9038 21.5869 14.9038C20.4159 14.9038 19.4617 15.8237 19.4617 16.955C19.4617 18.0853 20.4159 19.0058 21.5869 19.0058C22.7588 19.0058 23.7121 18.0853 23.7121 16.955Z" fill="#04386C"/>
</svg>
