<svg width="24" height="18" viewBox="0 0 24 18" fill="none" xmlns="http://www.w3.org/2000/svg">
<path d="M0.625 15.0938C0.625 15.848 0.924608 16.5713 1.45792 17.1046C1.99122 17.6379 2.71454 17.9375 3.46875 17.9375H20.5312C21.2855 17.9375 22.0088 17.6379 22.5421 17.1046C23.0754 16.5713 23.375 15.848 23.375 15.0938V7.27344H0.625V15.0938ZM3.97656 11.2344C3.97656 10.8303 4.13707 10.4428 4.42277 10.1571C4.70847 9.87144 5.09596 9.71094 5.5 9.71094H7.9375C8.34154 9.71094 8.72903 9.87144 9.01473 10.1571C9.30043 10.4428 9.46094 10.8303 9.46094 11.2344V12.25C9.46094 12.654 9.30043 13.0415 9.01473 13.3272C8.72903 13.6129 8.34154 13.7734 7.9375 13.7734H5.5C5.09596 13.7734 4.70847 13.6129 4.42277 13.3272C4.13707 13.0415 3.97656 12.654 3.97656 12.25V11.2344ZM20.5312 0.0625H3.46875C2.71454 0.0625 1.99122 0.362109 1.45792 0.895415C0.924608 1.42872 0.625 2.15204 0.625 2.90625V4.22656H23.375V2.90625C23.375 2.15204 23.0754 1.42872 22.5421 0.895415C22.0088 0.362109 21.2855 0.0625 20.5312 0.0625Z" fill="#0F0F0F"/>
</svg>
