<svg width="25" height="13" viewBox="0 0 25 13" fill="none" xmlns="http://www.w3.org/2000/svg">
<mask id="mask0_189_13409" style="mask-type:luminance" maskUnits="userSpaceOnUse" x="0" y="4" width="25" height="4">
<path fill-rule="evenodd" clip-rule="evenodd" d="M1 4.91113L23.8153 4.91113L23.8153 7.43851L1 7.43851L1 4.91113Z" fill="white" stroke="white"/>
</mask>
<g mask="url(#mask0_189_13409)">
<path fill-rule="evenodd" clip-rule="evenodd" d="M22.5518 7.43851L2.26369 7.43851C1.56613 7.43851 1 6.87238 1 6.17482C1 5.47727 1.56613 4.91113 2.26369 4.91113L22.5518 4.91113C23.2494 4.91113 23.8155 5.47727 23.8155 6.17482C23.8155 6.87238 23.2494 7.43851 22.5518 7.43851Z" fill="black"/>
<path d="M22.5518 7.43851L2.26369 7.43851C1.56613 7.43851 1 6.87238 1 6.17482C1 5.47727 1.56613 4.91113 2.26369 4.91113L22.5518 4.91113C23.2494 4.91113 23.8155 5.47727 23.8155 6.17482C23.8155 6.87238 23.2494 7.43851 22.5518 7.43851" stroke="#ECEDEE"/>
</g>
<mask id="mask1_189_13409" style="mask-type:luminance" maskUnits="userSpaceOnUse" x="16" y="0" width="8" height="13">
<path fill-rule="evenodd" clip-rule="evenodd" d="M16.3555 0L23.8152 3.8715e-08L23.8152 12.3517L16.3555 12.3517L16.3555 0Z" fill="white"/>
</mask>
<g mask="url(#mask1_189_13409)">
<path fill-rule="evenodd" clip-rule="evenodd" d="M17.6187 12.3517C17.2952 12.3517 16.97 12.2287 16.724 11.9794C16.2321 11.484 16.2337 10.6853 16.7274 10.1933L20.7611 6.17481L16.7274 2.15796C16.2337 1.66597 16.2304 0.867314 16.724 0.371947C17.216 -0.123419 18.0147 -0.123419 18.5101 0.368577L23.4435 5.28012C23.6828 5.51601 23.8159 5.83951 23.8159 6.17481C23.8159 6.51011 23.6828 6.83361 23.4435 7.0695L18.5101 11.9827C18.2641 12.2287 17.9406 12.3517 17.6187 12.3517Z" fill="black" stroke="#ECEDEE"/>
</g>
</svg>
