<svg width="45" height="44" viewBox="0 0 45 44" fill="none" xmlns="http://www.w3.org/2000/svg">
<rect x="0.112793" width="44" height="44" rx="22" fill="#3784D2"/>
<mask id="mask0_410_48956" style="mask-type:alpha" maskUnits="userSpaceOnUse" x="10" y="10" width="25" height="25">
<rect x="10.1133" y="10.0002" width="24" height="24" fill="white"/>
</mask>
<g mask="url(#mask0_410_48956)">
<path d="M27.5371 23.2761H15.8826C15.6643 23.2761 15.4815 23.2021 15.3342 23.054C15.1869 22.906 15.1133 22.7223 15.1133 22.5028C15.1133 22.2834 15.1869 22.0997 15.3342 21.9516C15.4815 21.8036 15.6643 21.7296 15.8826 21.7296H27.5371L24.1598 18.3349C24.0073 18.1816 23.932 18.0021 23.934 17.7966C23.936 17.591 24.0112 17.4083 24.1598 17.2483C24.319 17.0884 24.5018 17.0058 24.7082 17.0005C24.9147 16.9952 25.0975 17.0725 25.2566 17.2325L29.8509 21.8505C29.9469 21.947 30.0146 22.0488 30.0541 22.1558C30.0936 22.2629 30.1133 22.3786 30.1133 22.5028C30.1133 22.6271 30.0936 22.7427 30.0541 22.8498C30.0146 22.9569 29.9469 23.0587 29.8509 23.1552L25.2566 27.7732C25.1041 27.9265 24.9229 28.0022 24.7132 28.0002C24.5034 27.9982 24.319 27.9172 24.1598 27.7573C24.0112 27.5974 23.9343 27.4163 23.929 27.214C23.9238 27.0118 24.0007 26.8307 24.1598 26.6707L27.5371 23.2761Z" fill="white"/>
</g>
</svg>
