<svg width="29" height="30" viewBox="0 0 29 30" fill="none" xmlns="http://www.w3.org/2000/svg">
<path d="M7.20574 17.8833V16.7069H3.08809L1.91162 25.5304H7.20574V24.6013M7.20574 17.8833H10.6848C11.8613 18.4716 13.794 19.648 14.2646 19.648C14.7351 19.648 17.2057 19.648 18.3822 19.648C18.7744 19.648 19.5587 19.8833 19.5587 20.8245C19.5587 21.2923 19.3649 21.5858 19.1218 21.7626M7.20574 17.8833V24.6013M12.4999 22.5625C12.4999 22.001 12.892 22.001 13.0881 22.001H18.3822C18.5794 22.001 18.8759 21.9415 19.1218 21.7626M19.1218 21.7626L26.0293 18.4716C26.4214 18.2755 27.3234 18.1186 27.794 19.0598C28.2646 20.001 27.5979 20.6284 27.2057 20.8245L17.2057 26.1186C16.6175 26.3147 15.441 26.498 14.2646 26.1186C13.0881 25.7392 11.1273 24.9934 10.1469 24.6013H7.20574M17.0373 16.4993C18.8731 15.4965 22.8553 12.5737 24.0975 8.90538C25.6502 4.31992 20.3855 1.23869 17.0373 4.5868C13.6892 1.23869 8.42446 4.31992 9.97721 8.90538C11.2194 12.5737 15.2015 15.4965 17.0373 16.4993Z" stroke="#05386C" stroke-width="1.64706" stroke-linecap="round" stroke-linejoin="round"/>
</svg>
