<svg width="24" height="25" viewBox="0 0 24 25" fill="none" xmlns="http://www.w3.org/2000/svg">
<path fill-rule="evenodd" clip-rule="evenodd" d="M18 11.5C18 15.366 14.866 18.5 11 18.5C7.13401 18.5 4 15.366 4 11.5C4 7.63401 7.13401 4.5 11 4.5C14.866 4.5 18 7.63401 18 11.5ZM18.0319 17.1177C19.2635 15.578 20 13.625 20 11.5C20 6.52944 15.9706 2.5 11 2.5C6.02944 2.5 2 6.52944 2 11.5C2 16.4706 6.02944 20.5 11 20.5C13.125 20.5 15.078 19.7635 16.6177 18.5319L19.2929 21.2071C19.6834 21.5976 20.3166 21.5976 20.7071 21.2071C21.0976 20.8166 21.0976 20.1834 20.7071 19.7929L18.0319 17.1177Z" fill="black"/>
</svg>
