<svg width="44" height="44" viewBox="0 0 44 44" fill="none" xmlns="http://www.w3.org/2000/svg">
<rect width="44" height="44" rx="10" fill="white"/>
<path d="M23.2444 27.4209C23.2444 27.4209 23.614 27.3806 23.8033 27.181C23.9766 26.9981 23.9706 26.653 23.9706 26.653C23.9706 26.653 23.9475 25.0414 24.7098 24.8035C25.4611 24.5695 26.4257 26.3619 27.4494 27.0512C28.2227 27.5723 28.8097 27.4582 28.8097 27.4582L31.5453 27.4209C31.5453 27.4209 32.9757 27.3343 32.2975 26.2302C32.2414 26.1397 31.9019 25.4131 30.2641 23.9205C28.5482 22.3581 28.7786 22.6108 30.8441 19.9079C32.1022 18.262 32.605 17.2571 32.4478 16.8274C32.2985 16.4164 31.373 16.5255 31.373 16.5255L28.2938 16.5442C28.2938 16.5442 28.0654 16.5137 27.8961 16.6131C27.7309 16.7104 27.6237 16.9375 27.6237 16.9375C27.6237 16.9375 27.1369 18.2108 26.4868 19.2944C25.1155 21.5794 24.5676 21.7004 24.3432 21.5588C23.8213 21.2274 23.9515 20.2294 23.9515 19.5205C23.9515 17.3053 24.2941 16.382 23.2854 16.1431C22.9509 16.0634 22.7045 16.0113 21.848 16.0025C20.7492 15.9916 19.8196 16.0064 19.2927 16.2591C18.9422 16.4272 18.6717 16.8028 18.837 16.8245C19.0403 16.851 19.5011 16.9464 19.7455 17.2728C20.061 17.6946 20.05 18.6405 20.05 18.6405C20.05 18.6405 20.2313 21.2481 19.6263 21.5716C19.2116 21.7938 18.6427 21.3405 17.4196 19.2668C16.7936 18.2049 16.3208 17.0309 16.3208 17.0309C16.3208 17.0309 16.2296 16.8117 16.0663 16.6937C15.869 16.5511 15.5936 16.5069 15.5936 16.5069L12.6677 16.5255C12.6677 16.5255 12.2279 16.5373 12.0666 16.7251C11.9234 16.8913 12.0556 17.2364 12.0556 17.2364C12.0556 17.2364 14.3465 22.4978 16.9408 25.1496C19.3198 27.5802 22.0203 27.4209 22.0203 27.4209H23.2444Z" fill="#04386C"/>
</svg>
