<svg width="20" height="20" viewBox="0 0 20 20" fill="none" xmlns="http://www.w3.org/2000/svg">
    <path d="M19.9803 9.40995C19.6403 3.60995 14.3703 -0.860038 8.30029 0.139962C4.12029 0.829962 0.770293 4.21994 0.120293 8.39994C-0.259707 10.8199 0.240315 13.1099 1.33031 14.9999L0.4403 18.3099C0.2403 19.0599 0.93028 19.7399 1.67028 19.5299L4.93029 18.63C6.41029 19.5 8.14029 19.9999 9.99029 19.9999C15.6303 19.9999 20.3103 15.03 19.9803 9.40995ZM14.8803 13.7199C14.7903 13.8999 14.6803 14.07 14.5403 14.23C14.2903 14.5 14.0203 14.7 13.7203 14.82C13.4203 14.95 13.0903 15.01 12.7403 15.01C12.2303 15.01 11.6803 14.89 11.1103 14.64C10.5303 14.39 9.96031 14.0599 9.39031 13.6499C8.81031 13.2299 8.2703 12.7599 7.7503 12.2499C7.2303 11.7299 6.77027 11.1799 6.35027 10.6099C5.94027 10.0399 5.61029 9.46994 5.37029 8.89994C5.13029 8.32994 5.01031 7.77996 5.01031 7.25996C5.01031 6.91996 5.0703 6.58996 5.1903 6.28996C5.3103 5.97996 5.50032 5.69996 5.77032 5.44996C6.09032 5.12996 6.4403 4.97996 6.8103 4.97996C6.95029 4.97996 7.09027 5.00995 7.22027 5.06995C7.35027 5.12995 7.47029 5.21995 7.5603 5.34995L8.72027 6.98994C8.81027 7.11994 8.88028 7.22994 8.92028 7.33994C8.97028 7.44994 8.99029 7.54994 8.99029 7.64994C8.99029 7.76994 8.9503 7.88996 8.8803 8.00996C8.8103 8.12996 8.72027 8.24994 8.60027 8.36994L8.22027 8.76994C8.16027 8.82994 8.14031 8.88995 8.14031 8.96995C8.14031 9.00995 8.15027 9.04994 8.16027 9.08994C8.18027 9.12994 8.19031 9.15995 8.20031 9.18995C8.29031 9.35995 8.45028 9.56993 8.67028 9.82993C8.90028 10.0899 9.14032 10.3599 9.40032 10.6199C9.67032 10.8899 9.93031 11.1299 10.2003 11.3599C10.4603 11.5799 10.6803 11.73 10.8503 11.82C10.8803 11.83 10.9103 11.8499 10.9403 11.8599C10.9803 11.8799 11.0203 11.88 11.0703 11.88C11.1603 11.88 11.2203 11.85 11.2803 11.79L11.6603 11.41C11.7903 11.28 11.9103 11.19 12.0203 11.13C12.1403 11.06 12.2503 11.0199 12.3803 11.0199C12.4803 11.0199 12.5803 11.0399 12.6903 11.0899C12.8003 11.1399 12.9203 11.2 13.0403 11.29L14.7003 12.4699C14.8303 12.5599 14.9203 12.67 14.9803 12.79C15.0303 12.92 15.0603 13.0399 15.0603 13.1799C15.0003 13.3499 14.9603 13.5399 14.8803 13.7199Z" fill="black" />
</svg>