<svg width="14" height="16" viewBox="0 0 14 16" fill="none" xmlns="http://www.w3.org/2000/svg">
<path d="M13.75 5.75V13.0625C13.75 13.8084 13.4537 14.5238 12.9262 15.0512C12.3988 15.5787 11.6834 15.875 10.9375 15.875H3.0625C2.31658 15.875 1.60121 15.5787 1.07376 15.0512C0.546316 14.5238 0.25 13.8084 0.25 13.0625V2.9375C0.25 2.19158 0.546316 1.47621 1.07376 0.948762C1.60121 0.421316 2.31658 0.125 3.0625 0.125H8.125V4.0625C8.125 4.51005 8.30279 4.93928 8.61926 5.25574C8.93572 5.57221 9.36495 5.75 9.8125 5.75H13.75Z" fill="#3883B9"/>
<path d="M13.6994 4.62491H9.8125C9.66332 4.62491 9.52024 4.56565 9.41475 4.46016C9.30926 4.35467 9.25 4.2116 9.25 4.06241V0.175537C9.91567 0.288982 10.5293 0.607575 11.005 1.08679L12.7881 2.86991C13.2664 3.34633 13.5849 3.95961 13.6994 4.62491V4.62491Z" fill="#3883B9"/>
</svg>
