<svg width="61" height="60" viewBox="0 0 61 60" fill="none" xmlns="http://www.w3.org/2000/svg">
<rect x="0.112305" width="60" height="60" rx="30" fill="#3784D2" fill-opacity="0.6"/>
<path d="M37.5089 31.7406H21.6165C21.3188 31.7406 21.0695 31.6397 20.8687 31.4378C20.6678 31.2359 20.5674 30.9854 20.5674 30.6861C20.5674 30.3869 20.6678 30.1364 20.8687 29.9345C21.0695 29.7326 21.3188 29.6317 21.6165 29.6317H37.5089L32.9036 25.0026C32.6956 24.7935 32.5929 24.5488 32.5956 24.2685C32.5983 23.9883 32.701 23.739 32.9036 23.5209C33.1206 23.3028 33.3699 23.1902 33.6514 23.183C33.9329 23.1757 34.1822 23.2812 34.3992 23.4993L40.6641 29.7966C40.7951 29.9282 40.8874 30.067 40.9412 30.213C40.995 30.359 41.0219 30.5167 41.0219 30.6861C41.0219 30.8556 40.995 31.0133 40.9412 31.1593C40.8874 31.3053 40.7951 31.4441 40.6641 31.5757L34.3992 37.873C34.1912 38.0821 33.9442 38.1853 33.6581 38.1826C33.3721 38.1798 33.1206 38.0694 32.9036 37.8513C32.701 37.6332 32.596 37.3863 32.5889 37.1105C32.5817 36.8347 32.6866 36.5878 32.9036 36.3697L37.5089 31.7406Z" fill="white"/>
</svg>
