<svg width="44" height="44" viewBox="0 0 44 44" fill="none" xmlns="http://www.w3.org/2000/svg">
<rect width="44" height="44" rx="10" fill="white"/>
<path d="M32.052 17.2986C31.8165 16.3938 31.1225 15.6813 30.2413 15.4395C28.6443 15 22.24 15 22.24 15C22.24 15 15.8357 15 14.2386 15.4395C13.3574 15.6813 12.6634 16.3938 12.4279 17.2986C12 18.9384 12 22.36 12 22.36C12 22.36 12 25.7815 12.4279 27.4214C12.6634 28.3262 13.3574 29.0387 14.2386 29.2807C15.8357 29.72 22.24 29.72 22.24 29.72C22.24 29.72 28.6443 29.72 30.2413 29.2807C31.1225 29.0387 31.8165 28.3262 32.052 27.4214C32.48 25.7815 32.48 22.36 32.48 22.36C32.48 22.36 32.48 18.9384 32.052 17.2986Z" fill="#04386C"/>
<path d="M20 25.4V19L25.12 22.2001L20 25.4Z" fill="#D8EBFE"/>
</svg>
