<svg width="393" height="173" viewBox="0 0 393 173" fill="none" xmlns="http://www.w3.org/2000/svg">
<path d="M56.58 44.04C58.98 44.04 61.02 44.94 62.7 46.74C64.5 48.42 65.4 50.46 65.4 52.86C65.4 55.38 64.5 57.54 62.7 59.34C61.02 61.02 58.98 61.86 56.58 61.86C54.18 61.86 52.08 61.02 50.28 59.34C48.6 57.54 47.76 55.38 47.76 52.86C47.76 50.46 48.6 48.42 50.28 46.74C52.08 44.94 54.18 44.04 56.58 44.04ZM115.98 46.2V127.38C115.98 141.78 111.6 152.88 102.84 160.68C94.32 168.24 82.8 172.02 68.28 172.02H48.3C34.02 172.02 22.62 168.36 14.1 161.04C4.98 153.24 0.420001 142.02 0.420001 127.38V89.76L8.16 83.46H15.72V127.02C15.72 139.02 18.84 147.36 25.08 152.04C31.44 156.84 42.48 159.24 58.2 159.24C73.2 159.24 83.76 157.2 89.88 153.12C97.08 148.2 100.68 139.5 100.68 127.02V46.2H115.98ZM155.269 0.119996V109.38C155.269 111.3 155.869 112.92 157.069 114.24C158.389 115.56 160.069 116.22 162.109 116.22H164.449V129H156.169C152.329 129 148.969 127.74 146.089 125.22C142.009 121.74 139.969 117.3 139.969 111.9V0.119996H155.269ZM210.016 46.2V111.9C210.016 116.34 208.576 120.18 205.696 123.42C202.456 127.14 198.436 129 193.636 129H162.316V116.22H187.876C189.916 116.22 191.596 115.5 192.916 114.06C194.116 112.86 194.716 111.3 194.716 109.38V46.2H210.016ZM197.776 147.72C200.176 147.72 202.216 148.56 203.896 150.24C205.696 152.04 206.596 154.14 206.596 156.54C206.596 159.06 205.696 161.16 203.896 162.84C202.216 164.64 200.176 165.54 197.776 165.54C195.376 165.54 193.276 164.64 191.476 162.84C189.796 161.16 188.956 159.06 188.956 156.54C188.956 154.14 189.796 152.04 191.476 150.24C193.276 148.56 195.376 147.72 197.776 147.72ZM281.31 46.2V116.22H290.49V129H281.31C280.95 144 275.61 155.22 265.29 162.66C257.01 168.78 246.27 171.84 233.07 171.84C231.03 171.84 228.45 171.78 225.33 171.66L219.39 164.28V158.52C222.87 159 226.65 159.24 230.73 159.24C254.25 159.24 266.01 148.44 266.01 126.84V46.2H281.31ZM347.709 6.6C350.109 6.6 352.149 7.5 353.829 9.3C355.629 10.98 356.529 13.02 356.529 15.42C356.529 17.94 355.629 20.1 353.829 21.9C352.149 23.58 350.109 24.42 347.709 24.42C345.189 24.42 343.029 23.58 341.229 21.9C339.549 20.1 338.709 17.94 338.709 15.42C338.709 13.02 339.549 10.98 341.229 9.3C343.029 7.5 345.189 6.6 347.709 6.6ZM369.489 6.6C372.009 6.6 374.109 7.5 375.789 9.3C377.469 10.98 378.309 13.02 378.309 15.42C378.309 17.94 377.469 20.1 375.789 21.9C374.109 23.58 372.009 24.42 369.489 24.42C367.089 24.42 364.989 23.58 363.189 21.9C361.509 20.1 360.669 17.94 360.669 15.42C360.669 13.02 361.509 10.98 363.189 9.3C364.989 7.5 367.089 6.6 369.489 6.6ZM328.629 116.22C324.069 112.02 320.709 106.8 318.549 100.56C316.869 95.52 316.029 90.54 316.029 85.62C316.029 72.78 319.869 62.58 327.549 55.02C335.109 47.7 345.369 44.04 358.329 44.04C368.169 44.04 376.029 46.56 381.909 51.6C388.749 57.36 392.289 65.76 392.529 76.8V111.9C392.529 116.58 390.909 120.6 387.669 123.96C384.549 127.32 380.769 129 376.329 129H288.309V116.22H328.629ZM377.049 76.8C377.049 70.08 375.069 64.92 371.109 61.32C367.989 58.44 363.729 57 358.329 57C348.369 57 341.049 60.48 336.369 67.44C333.009 72.24 331.329 78.48 331.329 86.16C331.449 94.32 334.089 101.28 339.249 107.04C344.649 113.16 351.789 116.22 360.669 116.22H370.389C374.829 116.22 377.049 113.94 377.049 109.38V76.8Z" fill="#3784D2"/>
</svg>
