<svg width="63" height="64" viewBox="0 0 63 64" fill="none" xmlns="http://www.w3.org/2000/svg">
<rect y="32" width="44" height="44" rx="22" transform="rotate(-45 0 32)" fill="#3784D2"/>
<mask id="mask0_410_48956" style="mask-type:alpha" maskUnits="userSpaceOnUse" x="14" y="15" width="35" height="34">
<rect x="14.1426" y="32" width="24" height="24" transform="rotate(-45 14.1426 32)" fill="white"/>
</mask>
<g mask="url(#mask0_410_48956)">
<path d="M35.8506 29.0671L27.6096 37.308C27.4553 37.4624 27.2737 37.5393 27.0648 37.5387C26.856 37.5382 26.674 37.4604 26.5188 37.3052C26.3637 37.1501 26.2858 36.9681 26.2853 36.7592C26.2848 36.5504 26.3617 36.3688 26.5161 36.2144L34.757 27.9735L29.9686 27.9612C29.7523 27.9606 29.5721 27.887 29.4282 27.7402C29.2843 27.5935 29.2083 27.411 29.2002 27.1929C29.1997 26.9672 29.2705 26.7796 29.4128 26.6298C29.555 26.4801 29.7389 26.4055 29.9646 26.4061L36.4787 26.4229C36.6148 26.4232 36.7346 26.4473 36.8382 26.4951C36.9418 26.5429 37.0376 26.6108 37.1254 26.6986C37.2133 26.7865 37.2811 26.8822 37.3289 26.9858C37.3768 27.0894 37.4008 27.2093 37.4012 27.3454L37.4179 33.8595C37.4185 34.0758 37.3439 34.2574 37.1942 34.4043C37.0445 34.5512 36.8568 34.6244 36.6312 34.6238C36.413 34.6158 36.2306 34.5421 36.0838 34.4029C35.9371 34.2636 35.8635 34.0811 35.8629 33.8555L35.8506 29.0671Z" fill="white"/>
</g>
</svg>
