<svg width="170" height="83" viewBox="0 0 170 83" fill="none" xmlns="http://www.w3.org/2000/svg">
<g clip-path="url(#clip0_410_33952)">
<path d="M16.3408 12.6182C31.3975 12.6182 38.5314 21.5164 38.5314 33.8073C38.5314 46.0981 31.3975 55.0036 16.3408 55.0036H0.5V12.6182H16.3408ZM16.3408 20.6088H9.56903V47.0057H16.3408C24.7456 47.0057 29.2897 42.5254 29.2897 33.8001C29.2897 25.0747 24.7456 20.6088 16.3408 20.6088Z" fill="#1D1D1B"/>
<path d="M47.8784 12.6182V41.1904C47.8784 45.9685 44.1903 47.4331 39.6558 47.4331C39.416 47.4331 39.0323 47.3779 38.7949 47.3683C37.1914 50.1817 34.8905 52.5336 32.1143 54.1968C34.7736 55.3973 37.6032 55.7887 41.8355 55.7887C49.9382 55.7887 56.9426 52.2184 56.9426 42.2253V12.6182H47.8784Z" fill="#1D1D1B"/>
<path d="M73.1004 12.575L71.6616 54.9555H62.583V12.575H73.1004Z" fill="#1D1D1B"/>
<path d="M101.037 12C105.572 12 108.862 12.9028 112.787 14.6579L113.794 23.2248C110.588 21.1071 106.54 20.1035 102.246 20.1035C94.6897 20.1035 87.2513 24.1012 87.2513 34.0295C87.2513 45.2903 95.5362 48.1355 101.764 48.1355C103.35 48.1572 104.927 47.8904 106.418 47.348V32.2215H114.643L116.211 52.5462C111.979 54.3614 105.996 56.0757 101.279 56.0757C89.4286 56.0757 78 49.5929 78 34.0367C78 18.6581 89.4286 12 101.037 12Z" fill="#1D1D1B"/>
<path d="M131.471 1.81337L130.183 9.31178L121.071 8.85559C121.071 8.85559 120.553 1.63329 121.551 0.569632C121.953 0.14705 131.471 1.81337 131.471 1.81337Z" fill="#E94F35"/>
<path d="M126.519 14.073L124.584 26.7601L123.515 14.7141L119.618 14.887L122.076 55.0034H130.155L133.752 12.6228L126.519 14.073Z" fill="#E94F35"/>
<path d="M169.5 12.6182V20.7817H158.014V55.0036H149.005V20.7913H137.519L138.634 12.6278L169.5 12.6182Z" fill="#1D1D1B"/>
<path d="M33.0736 66.178C32.9815 66.0892 32.9088 65.9824 32.8597 65.8643C32.8106 65.7462 32.7862 65.6192 32.7882 65.4913C32.7876 65.366 32.8125 65.242 32.8616 65.1268C32.9107 65.0116 32.9828 64.9076 33.0736 64.8214C33.1654 64.7282 33.2753 64.6547 33.3966 64.6056C33.5178 64.5565 33.6478 64.5327 33.7785 64.5357C33.9085 64.5325 34.0378 64.5553 34.1588 64.6027C34.2798 64.6501 34.3902 64.7212 34.4835 64.8118C34.575 64.8955 34.6479 64.9976 34.6975 65.1113C34.747 65.2251 34.7722 65.348 34.7713 65.4721C34.7691 65.6681 34.7095 65.8591 34.6 66.0214C34.4904 66.1838 34.3357 66.3104 34.1549 66.3856C33.9741 66.4608 33.7753 66.4811 33.5831 66.4442C33.3909 66.4073 33.2137 66.3148 33.0736 66.178ZM33.0927 68.6583H34.4452V78.6994H33.0927V68.6583Z" fill="#1D1D1B"/>
<path d="M43.5019 78.0894C43.2274 78.3292 42.9055 78.5084 42.5572 78.6152C42.178 78.7361 41.7824 78.7968 41.3846 78.7953C40.4446 78.7953 39.7204 78.5408 39.212 78.0318C38.7037 77.5228 38.4495 76.8025 38.4495 75.8709V69.8035H36.6582V68.6582H38.4495V66.4636H39.8043V68.6582H42.8545V69.8035H39.8043V75.806C39.7689 76.3016 39.929 76.7912 40.2503 77.1698C40.4209 77.3329 40.6234 77.4587 40.8451 77.5393C41.0667 77.6199 41.3027 77.6535 41.538 77.638C41.8136 77.6391 42.0875 77.5945 42.3485 77.506C42.5962 77.423 42.8257 77.2935 43.0247 77.1242L43.5019 78.0894Z" fill="#1D1D1B"/>
<path d="M52.4534 78.1471C51.6829 77.7236 51.0465 77.0922 50.6166 76.3247C50.1786 75.5134 49.9492 74.6058 49.9492 73.6836C49.9492 72.7614 50.1786 71.8537 50.6166 71.0424C51.0503 70.2785 51.688 69.6508 52.4582 69.2296C53.2744 68.7887 54.1902 68.5654 55.1175 68.5814C55.9182 68.5675 56.7112 68.7401 57.4339 69.0856C58.1023 69.4138 58.6618 69.9282 59.0454 70.567L58.0334 71.2537C57.7225 70.7743 57.2874 70.3884 56.7745 70.1372C56.2584 69.8865 55.6912 69.7591 55.1175 69.7651C54.4355 69.7526 53.762 69.9181 53.1632 70.2453C52.5883 70.5675 52.118 71.0484 51.8084 71.6307C51.4899 72.2659 51.324 72.9668 51.324 73.6776C51.324 74.3883 51.4899 75.0892 51.8084 75.7244C52.1204 76.3025 52.5904 76.7796 53.1632 77.1002C53.762 77.4274 54.4355 77.5929 55.1175 77.5804C55.6901 77.5862 56.2565 77.4622 56.7745 77.2179C57.2883 76.9726 57.7241 76.5895 58.0334 76.111L59.0454 76.7977C58.6603 77.4381 58.0969 77.9521 57.4244 78.2767C56.705 78.6223 55.9153 78.7957 55.1175 78.7833C54.1897 78.8038 53.2722 78.5847 52.4534 78.1471Z" fill="#1D1D1B"/>
<path d="M63.0052 78.1375C62.2405 77.7088 61.6077 77.0786 61.1755 76.3151C60.738 75.5059 60.5088 74.6002 60.5088 73.68C60.5088 72.7598 60.738 71.8541 61.1755 71.0448C61.6061 70.2827 62.2395 69.6551 63.0052 69.2321C63.8104 68.8063 64.7072 68.5837 65.6177 68.5837C66.5283 68.5837 67.4251 68.8063 68.2303 69.2321C68.9942 69.6542 69.6248 70.2822 70.0503 71.0448C70.4817 71.856 70.7074 72.761 70.7074 73.68C70.7074 74.599 70.4817 75.5039 70.0503 76.3151C69.6231 77.079 68.9932 77.7097 68.2303 78.1375C67.4272 78.57 66.5296 78.7964 65.6177 78.7964C64.7059 78.7964 63.8082 78.57 63.0052 78.1375ZM67.5349 77.1075C68.0992 76.7817 68.5585 76.301 68.8586 75.7221C69.1721 75.0875 69.3351 74.3891 69.3351 73.6812C69.3351 72.9732 69.1721 72.2748 68.8586 71.6403C68.5592 71.0609 68.0997 70.58 67.5349 70.2549C66.9457 69.9357 66.2864 69.7685 65.6165 69.7685C64.9467 69.7685 64.2873 69.9357 63.6982 70.2549C63.1309 70.5807 62.6677 71.0612 62.3625 71.6403C62.0429 72.273 61.8763 72.9721 61.8763 73.6812C61.8763 74.3902 62.0429 75.0894 62.3625 75.7221C62.6685 76.3006 63.1315 76.7809 63.6982 77.1075C64.2873 77.4267 64.9467 77.5938 65.6165 77.5938C66.2864 77.5938 66.9457 77.4267 67.5349 77.1075Z" fill="#1D1D1B"/>
<path d="M88.9434 69.6715C89.6628 70.3966 90.0217 71.4659 90.0201 72.8793V78.6994H88.6676V73.0113C88.6676 71.9693 88.4166 71.1737 87.9147 70.6247C87.4127 70.0757 86.7037 69.8019 85.7877 69.8035C84.747 69.8035 83.9277 70.1237 83.3298 70.764C82.7319 71.4042 82.433 72.2918 82.433 73.4267V78.6946H81.0709V73.0113C81.0709 71.9693 80.82 71.1737 80.318 70.6247C79.816 70.0757 79.1078 69.8019 78.1934 69.8035C77.1655 69.8035 76.3486 70.1237 75.7427 70.764C75.1368 71.4042 74.8347 72.2934 74.8363 73.4315V78.6994H73.4814V68.6582H74.7787V70.4926C75.1268 69.8868 75.6433 69.3954 76.2655 69.0784C76.9454 68.7388 77.6974 68.5691 78.4572 68.5838C79.2196 68.5651 79.9733 68.749 80.6417 69.1168C81.2627 69.4798 81.7478 70.0364 82.0229 70.7015C82.3929 70.0402 82.9458 69.4999 83.6152 69.1457C84.3468 68.7617 85.1632 68.5685 85.9891 68.5838C87.2425 68.5838 88.2272 68.9464 88.9434 69.6715Z" fill="#1D1D1B"/>
<path d="M101.422 69.2223C102.177 69.642 102.798 70.2672 103.213 71.0255C103.64 71.8484 103.863 72.7621 103.863 73.6895C103.863 74.6168 103.64 75.5305 103.213 76.3534C102.8 77.1098 102.182 77.7346 101.432 78.1566C100.647 78.5889 99.7635 78.809 98.8681 78.7953C98.1014 78.81 97.3426 78.6377 96.6572 78.2934C95.9978 77.9534 95.4414 77.4426 95.0458 76.8144V82.4088H93.6934V68.6581H94.9882V70.6438C95.3791 69.9994 95.9356 69.472 96.5997 69.1167C97.2975 68.7537 98.0747 68.5705 98.8609 68.5837C99.7556 68.5696 100.638 68.7897 101.422 69.2223ZM100.679 77.1073C101.248 76.7825 101.714 76.302 102.021 75.7219C102.351 75.0921 102.516 74.3893 102.501 73.6787C102.516 72.9717 102.351 72.2726 102.021 71.6474C101.712 71.0693 101.246 70.5894 100.679 70.262C100.094 69.9376 99.436 69.7675 98.7674 69.7675C98.0988 69.7675 97.4411 69.9376 96.8562 70.262C96.2916 70.5912 95.8293 71.0708 95.5206 71.6474C95.1907 72.2726 95.0256 72.9717 95.041 73.6787C95.0265 74.3893 95.1915 75.0921 95.5206 75.7219C95.8266 76.3005 96.2896 76.7808 96.8562 77.1073C97.4431 77.4257 98.1 77.5924 98.7674 77.5924C99.4348 77.5924 100.092 77.4257 100.679 77.1073Z" fill="#1D1D1B"/>
<path d="M113.091 69.5658C113.79 70.2221 114.139 71.1929 114.139 72.4783V78.6994H112.842V77.1363C112.525 77.6671 112.057 78.0916 111.499 78.356C110.84 78.6634 110.118 78.8138 109.391 78.7954C108.272 78.7954 107.382 78.5281 106.722 77.9935C106.418 77.7391 106.172 77.4221 106.002 77.0641C105.831 76.7061 105.739 76.3154 105.733 75.9188C105.726 75.5221 105.805 75.1287 105.965 74.7653C106.124 74.402 106.359 74.0773 106.655 73.8133C107.27 73.293 108.253 73.0321 109.602 73.0305H112.784V72.4207C112.784 71.5539 112.544 70.896 112.065 70.4446C111.585 69.9932 110.866 69.7675 109.95 69.7675C109.326 69.7645 108.707 69.871 108.12 70.0821C107.567 70.273 107.055 70.5671 106.612 70.9488L106.01 69.938C106.549 69.4886 107.171 69.1485 107.84 68.9368C108.566 68.6994 109.325 68.5802 110.089 68.5838C111.39 68.5838 112.391 68.9112 113.091 69.5658ZM111.566 77.2011C112.123 76.8383 112.55 76.3066 112.784 75.6837V74.0414H109.64C107.924 74.0414 107.065 74.64 107.065 75.8373C107.055 76.1051 107.111 76.3712 107.227 76.6123C107.344 76.8534 107.518 77.0622 107.734 77.2203C108.179 77.5597 108.801 77.7286 109.602 77.727C110.294 77.7463 110.976 77.5636 111.566 77.2011Z" fill="#1D1D1B"/>
<path d="M125.93 69.6809C126.673 70.4132 127.045 71.4769 127.045 72.8791V78.6992H125.692V73.0112C125.692 71.9691 125.432 71.1736 124.911 70.6245C124.39 70.0771 123.644 69.8034 122.68 69.8034C121.6 69.8034 120.744 70.1235 120.115 70.7638C119.485 71.4041 119.171 72.2916 119.172 73.4265V78.6944H117.817V68.6581H119.115V70.5117C119.482 69.9017 120.014 69.4081 120.649 69.0879C121.357 68.7396 122.139 68.5667 122.927 68.5837C124.186 68.5837 125.186 68.9494 125.93 69.6809Z" fill="#1D1D1B"/>
<path d="M138.962 68.658L133.946 79.9021C133.54 80.8433 133.07 81.5116 132.536 81.9069C131.978 82.3086 131.304 82.5169 130.617 82.5C130.156 82.5008 129.698 82.4195 129.265 82.2599C128.856 82.1148 128.485 81.8802 128.179 81.5732L128.807 80.5624C129.044 80.8081 129.328 81.0026 129.643 81.134C129.957 81.2653 130.296 81.3306 130.637 81.3259C131.06 81.3373 131.474 81.2025 131.809 80.9441C132.207 80.5864 132.517 80.142 132.716 79.6452L133.154 78.6727L128.673 68.6484H130.085L133.859 77.1817L137.634 68.6484L138.962 68.658Z" fill="#1D1D1B"/>
</g>
<defs>
<clipPath id="clip0_410_33952">
<rect width="169" height="82" fill="white" transform="translate(0.5 0.5)"/>
</clipPath>
</defs>
</svg>
