<svg width="18" height="18" viewBox="0 0 18 18" fill="none" xmlns="http://www.w3.org/2000/svg">
<path d="M15.75 6.75V14.0625C15.75 14.8084 15.4537 15.5238 14.9262 16.0512C14.3988 16.5787 13.6834 16.875 12.9375 16.875H5.0625C4.31658 16.875 3.60121 16.5787 3.07376 16.0512C2.54632 15.5238 2.25 14.8084 2.25 14.0625V3.9375C2.25 3.19158 2.54632 2.47621 3.07376 1.94876C3.60121 1.42132 4.31658 1.125 5.0625 1.125H10.125V5.0625C10.125 5.51005 10.3028 5.93928 10.6193 6.25574C10.9357 6.57221 11.3649 6.75 11.8125 6.75H15.75Z" fill="#3883B9"/>
<path d="M15.6994 5.62491H11.8125C11.6633 5.62491 11.5202 5.56565 11.4148 5.46016C11.3093 5.35467 11.25 5.2116 11.25 5.06241V1.17554C11.9157 1.28898 12.5293 1.60757 13.005 2.08679L14.7881 3.86991C15.2664 4.34633 15.5849 4.95961 15.6994 5.62491Z" fill="#3883B9"/>
</svg>
