<?xml version="1.0" standalone="no"?>
<!DOCTYPE svg PUBLIC "-//W3C//DTD SVG 20010904//EN"
 "http://www.w3.org/TR/2001/REC-SVG-20010904/DTD/svg10.dtd">
<svg version="1.0" xmlns="http://www.w3.org/2000/svg"
 width="700.000000pt" height="700.000000pt" viewBox="0 0 700.000000 700.000000"
 preserveAspectRatio="xMidYMid meet">
<metadata>
Created by potrace 1.14, written by Peter Selinger 2001-2017
</metadata>
<g transform="translate(0.000000,700.000000) scale(0.100000,-0.100000)"
fill="#000000" stroke="none">
<path d="M2987 6124 c-1 -1 -30 -4 -63 -7 -250 -24 -509 -151 -697 -343 -94
-96 -199 -252 -234 -349 -41 -111 -55 -152 -59 -170 -2 -11 -9 -42 -16 -70 -8
-30 -13 -115 -13 -215 1 -148 3 -176 29 -275 94 -364 341 -648 696 -798 41
-17 97 -35 131 -43 124 -26 188 -34 294 -37 66 -2 205 15 280 34 381 97 692
387 814 759 12 36 24 79 27 95 3 17 10 50 16 75 5 25 11 99 13 165 8 340 -127
652 -380 882 -209 189 -470 291 -763 298 -40 0 -74 0 -75 -1z"/>
<path d="M6604 5634 c-193 -39 -409 -155 -739 -395 -89 -65 -128 -95 -240
-184 -92 -73 -278 -224 -330 -269 -33 -28 -69 -59 -80 -68 -34 -28 -309 -259
-335 -282 -85 -73 -343 -286 -445 -365 -66 -52 -122 -98 -125 -101 -3 -3 -21
-17 -40 -30 -19 -13 -37 -27 -40 -30 -21 -24 -305 -220 -450 -310 -102 -63
-322 -171 -405 -199 -247 -83 -419 -75 -674 31 -181 75 -365 184 -606 357
-103 75 -286 214 -335 254 -9 8 -38 31 -66 53 -64 51 -259 209 -305 249 -20
16 -44 37 -55 45 -10 9 -86 69 -169 136 -363 290 -600 444 -771 499 -109 36
-231 24 -294 -27 -170 -139 -114 -507 155 -1023 180 -345 494 -813 795 -1186
25 -31 61 -76 80 -100 292 -365 747 -835 1060 -1095 240 -199 391 -303 585
-401 297 -151 480 -145 829 28 116 58 113 56 305 184 217 145 430 318 691 560
108 100 461 457 556 561 280 309 461 521 644 754 41 52 77 97 80 100 4 4 72
94 214 284 11 16 42 58 68 95 26 36 51 71 55 76 4 6 26 37 49 70 120 175 177
263 253 385 46 74 92 147 102 162 11 15 19 29 19 31 0 2 23 44 51 93 116 201
232 462 280 629 29 101 32 254 7 300 -60 110 -211 163 -374 129z"/>
</g>
</svg>
