<svg width="24" height="24" viewBox="0 0 24 24" fill="none" xmlns="http://www.w3.org/2000/svg">
<path d="M10.0025 4.25722C9.69873 3.4979 8.96332 3 8.14551 3H5.39474C4.3483 3 3.5 3.8481 3.5 4.89453C3.5 13.7892 10.7108 21 19.6055 21C20.6519 21 21.5 20.1516 21.5 19.1052L21.5005 16.354C21.5005 15.5361 21.0027 14.8009 20.2434 14.4971L17.6069 13.4429C16.9249 13.1701 16.1483 13.2929 15.5839 13.7632L14.9035 14.3307C14.1089 14.9929 12.9396 14.9402 12.2082 14.2088L10.2922 12.2911C9.56079 11.5596 9.50673 10.3913 10.1689 9.59668L10.7363 8.9163C11.2066 8.35195 11.3305 7.57516 11.0577 6.89309L10.0025 4.25722Z" stroke="url(#paint0_linear_410_33760)" stroke-width="2" stroke-linecap="round" stroke-linejoin="round"/>
<defs>
<linearGradient id="paint0_linear_410_33760" x1="3.5" y1="12.0383" x2="21.5005" y2="12.0383" gradientUnits="userSpaceOnUse">
<stop stop-color="#50B3B1"/>
<stop offset="1" stop-color="#3681B9"/>
</linearGradient>
</defs>
</svg>
