<svg width="140" height="32" viewBox="0 0 140 32" fill="none" xmlns="http://www.w3.org/2000/svg">
<path d="M17.5798 14.7572C21.2496 14.7572 24.2245 11.5079 24.2245 7.49969C24.2245 3.49148 21.2496 0.242188 17.5798 0.242188C13.91 0.242188 10.9351 3.49148 10.9351 7.49969C10.9351 11.5079 13.91 14.7572 17.5798 14.7572Z" fill="#13396C"/>
<path d="M18.2807 31.9436C25.4821 31.3795 42.7776 6.89163 39.9945 3.85183C36.3524 -0.1262 24.5107 17.0048 18.0827 17.718C12.8911 18.3025 3.98505 5.59971 0.89149 7.12838C-3.99505 9.54267 12.5352 32.3937 18.2807 31.9436Z" fill="#13396C"/>
<path d="M83.3633 8.50537V26.6769H78.0914V20.0624H71.9872V26.6769H66.7153V8.50537H71.9872V15.2777H78.0807V8.50537H83.3633Z" fill="#13396C"/>
<path d="M85.207 17.534C85.207 11.773 89.553 8.0376 94.3967 8.0376C97.608 8.0376 100.062 9.7504 101.665 12.3196L97.5679 15.1197C96.9283 14.0324 95.5742 13.366 94.4342 13.366C92.0097 13.366 90.4522 15.2776 90.4522 17.534C90.4522 19.7905 92.0097 21.8102 94.4342 21.8102C95.5742 21.8102 96.9283 21.1496 97.5679 20.0565L101.665 22.8566C100.059 25.4258 97.6054 27.1386 94.3967 27.1386C89.553 27.1327 85.207 23.2921 85.207 17.534Z" fill="#13396C"/>
<path d="M121.037 8.50526V26.6768H115.763V24.3823C114.623 26.0922 112.594 27.1444 110.491 27.1444C105.824 27.1444 102.545 23.2921 102.545 17.61C102.545 11.9279 105.824 8.0376 110.574 8.0376C112.605 8.0376 114.633 9.01092 115.773 10.6857V8.50526H121.037ZM115.586 17.61C115.592 17.0545 115.496 16.5034 115.305 15.9885C115.114 15.4737 114.832 15.0053 114.474 14.6108C114.116 14.2162 113.689 13.9033 113.22 13.6901C112.75 13.4769 112.246 13.3677 111.738 13.3689C109.493 13.3689 107.927 15.2776 107.927 17.61C107.921 18.1635 108.017 18.7126 108.208 19.2252C108.399 19.7377 108.682 20.2035 109.04 20.595C109.399 20.9865 109.825 21.2959 110.294 21.5051C110.763 21.7143 111.266 21.819 111.773 21.8131C112.785 21.7971 113.752 21.3479 114.465 20.5621C115.178 19.7762 115.581 18.7163 115.586 17.61Z" fill="#13396C"/>
<path d="M140 8.50537V26.6769H134.728V20.0624H128.635V26.6769H123.368V8.50537H128.64V15.2777H134.734V8.50537H140Z" fill="#13396C"/>
<path d="M64.5719 26.5483H59.3001V25.0576C58.9067 25.7796 57.4268 26.6652 55.9924 26.6652C51.0577 26.6652 47.833 22.5732 47.833 17.5312V8.50537H53.0862V17.5312C53.093 18.406 53.4083 19.2442 53.9665 19.8715C54.5247 20.4988 55.2828 20.867 56.0832 20.8993C56.8835 20.9317 57.6645 20.6258 58.2637 20.0453C58.8628 19.4648 59.234 18.6544 59.3001 17.7826C59.3001 17.7007 59.3001 17.616 59.3001 17.5312V8.50537H64.5559L64.5719 26.5483Z" fill="#13396C"/>
</svg>
