<svg width="78" height="28" viewBox="0 0 78 28" fill="none" xmlns="http://www.w3.org/2000/svg">
<g style="mix-blend-mode:luminosity" opacity="0.4">
<mask id="mask0_15_5492" style="mask-type:luminance" maskUnits="userSpaceOnUse" x="0" y="0" width="78" height="28">
<path d="M78 0H0V27.5854H78V0Z" fill="white"/>
</mask>
<g mask="url(#mask0_15_5492)">
<mask id="mask1_15_5492" style="mask-type:luminance" maskUnits="userSpaceOnUse" x="0" y="0" width="78" height="28">
<path d="M77.8859 0.788574H0V27.5858H77.8859V0.788574Z" fill="white"/>
</mask>
<g mask="url(#mask1_15_5492)">
<path d="M7.30042 6.4248C14.2394 6.4248 17.5272 10.5635 17.5272 16.2803C17.5272 21.997 14.2394 26.1391 7.30042 26.1391H0V6.4248H7.30042ZM7.30042 10.1414H4.17957V22.4192H7.30042C11.1738 22.4192 13.2681 20.3352 13.2681 16.277C13.2681 12.2186 11.1738 10.1414 7.30042 10.1414Z" fill="#FF3D00"/>
<path d="M21.8353 6.4248V19.7144C21.8353 21.9367 20.1356 22.618 18.0459 22.618C17.9353 22.618 17.7585 22.5923 17.6491 22.5878C16.9102 23.8964 15.8497 24.9903 14.5703 25.7639C15.7959 26.3223 17.0999 26.5043 19.0505 26.5043C22.7847 26.5043 26.0127 24.8436 26.0127 20.1957V6.4248H21.8353Z" fill="#FF3D00"/>
<path d="M33.4592 6.40479L32.7961 26.1169H28.6123V6.40479H33.4592Z" fill="#FF3D00"/>
<path d="M46.3933 6.03027C48.483 6.03027 49.9993 6.45024 51.8083 7.26657L52.2724 11.2512C50.7949 10.2662 48.9295 9.79939 46.9503 9.79939C43.468 9.79939 40.0399 11.6588 40.0399 16.2767C40.0399 21.5143 43.8581 22.8377 46.7281 22.8377C47.4592 22.8478 48.186 22.7237 48.8731 22.4713V15.4357H52.6638L53.3864 24.8891C51.4359 25.7334 48.6786 26.5309 46.5049 26.5309C41.0434 26.5309 35.7764 23.5156 35.7764 16.28C35.7764 9.12706 41.0434 6.03027 46.3933 6.03027Z" fill="#FF3D00"/>
<path d="M60.3587 1.39945L59.7653 4.88719L55.5658 4.67497C55.5658 4.67497 55.3272 1.31574 55.7869 0.821015C55.9725 0.624398 60.3587 1.39945 60.3587 1.39945Z" fill="#FF3D00"/>
<path d="M58.077 7.10127L57.1852 13.0023L56.6923 7.39948L54.8965 7.47985L56.0293 26.1388H59.7524L61.4101 6.42676L58.077 7.10127Z" fill="#FF3D00"/>
<path d="M77.8849 6.4248V10.2218H72.5923V26.1391H68.4402V10.2263H63.1465L63.6603 6.42928L77.8849 6.4248Z" fill="#FF3D00"/>
</g>
</g>
</g>
</svg>
